<svg width="48" height="48" version="1.1" viewBox="0 0 12.7 12.7" xmlns="http://www.w3.org/2000/svg" xmlns:xlink="http://www.w3.org/1999/xlink">
  <defs>
    <linearGradient id="linearGradient6" x1="2.7213" x2=".83258" y1="7.4355" y2="-4.7402" gradientUnits="userSpaceOnUse">
      <stop stop-color="#fff" stop-opacity=".5" offset="0"/>
      <stop stop-color="#fff" stop-opacity="0" offset="1"/>
    </linearGradient>
    <radialGradient id="radialGradient12" cx="5.4935" cy="6.3205" r="5.5234" gradientTransform="matrix(1.8168 0 1.2726e-5 1.8138 -3.7395 -2.8371)" gradientUnits="userSpaceOnUse">
      <stop stop-color="#fff" offset="0"/>
      <stop stop-color="#fff" stop-opacity="0" offset="1"/>
    </radialGradient>
  </defs>
  <path fill="#fc0" d="m6.3366 0c-0.39239 0.0012487-1.6837 3.1444-2.0004 3.376s-3.703 0.50959-3.823 0.88315c-3e-3 0.00943-0.0034 0.020854-0.0031 0.032556l0.0031 1.5338c0.0011 0.34583 1.8918 2.0747 2.4515 2.7399-0.12493 0.78693-0.2779 1.7029-0.27492 2.1978-6.05e-4 -1e-4 -0.0015 1.05e-4 -0.0021 0l1e-3 1.5384c1.1e-4 0.20027 0.0193 0.33775 0.07545 0.37827 0.31819 0.22962 3.2105-1.5547 3.6029-1.556 0.39239-0.0012 3.2955 1.7644 3.6122 1.5327 0.05213-0.03813 0.07333-0.16036 0.07338-0.339 8.6e-5 -0.2918 0.07264-1.1018 0-1.5766-2.7e-4 3.5e-5 -7.63e-4 -3.4e-5 -1e-3 0 1.007e-4 -0.49671-0.16009-1.4187-0.29042-2.2076 0.56866-0.67731 2.4249-2.4012 2.4257-2.7451l0.0025-1.546c2.67e-4 -0.011705 5.39e-4 -0.010944-0.0026-0.020358-0.12231-0.37279-3.5104-0.62924-3.8286-0.85886-0.31819-0.22962-1.6292-3.3644-2.0216-3.3631z"/>
  <path fill-opacity=".15" transform="matrix(.89124 .13825 -.13825 .8912 5.0029 5.6763)" d="m7.6334-2.7801c-1.18e-4 1.652e-4 -3.603e-4 4.888e-4 -4.784e-4 6.541e-4 4.031e-4 0.0030565 0.0016607 0.0051807 0.0018838 0.0084055l-0.0014054-0.0090596zm0.0014054 0.0090596c0.03128 0.45219-1.6941 2.5462-2.1936 3.3636-0.010693 0.019219-0.027552 0.046822-0.036991 0.064303-0.0048145 0.0089161-0.011866 0.020761-0.016343 0.029208-0.021767 0.041071-0.039391 0.076418-0.052622 0.10558-0.011925 0.028191-0.02516 0.057224-0.028176 0.076272-0.0037195 0.023484-0.0013694 0.059675 0.003393 0.10037 0.0019718 0.016672 0.0053485 0.036189 0.0086079 0.05549 0.0038838 0.023109 0.0096277 0.049232 0.015255 0.075913 0.0098423 0.0466 0.025752 0.10659 0.040369 0.16305 0.025088 0.096978 0.055024 0.20394 0.091584 0.32501 0.01639 0.054274 0.031581 0.10575 0.04978 0.16391 0.054708 0.17485 0.11389 0.35939 0.17948 0.55897 0.00117 0.00356 0.0022833 0.0074957 0.0034553 0.011061 0.50795-0.83878 2.2488-3.0432 2.1912-3.4201l-0.25541-1.6727zm-12.795 2.0155 0.26614 1.682c0.059971 0.37874 2.4254 1.9518 3.1518 2.5855 2.66e-5 -0.0075195-1.414e-4 -0.015679-1.162e-4 -0.023176 7.162e-4 -0.21346-3.91e-5 -0.41135-0.0021423-0.59691-5.787e-4 -0.049639-0.0017348-0.093684-0.0026592-0.14049-0.0027742-0.14403-0.0082456-0.26926-0.015418-0.37973-0.0029468-0.044819-0.0050912-0.094486-0.0089658-0.13255-0.0036697-0.036424-0.0075291-0.071079-0.01215-0.10075-0.0022837-0.014626-0.0047096-0.030072-0.0072416-0.042945-0.008169-0.0415-0.017052-0.077189-0.028091-0.098856-0.0087342-0.017142-0.029982-0.041095-0.04996-0.064152-0.02248-0.024598-0.051452-0.053513-0.086625-0.087456-7.016e-4 -6.517e-4 -0.0013436-0.0013473-0.00205-0.0020014-0.0018118-0.0017452-0.0055272-0.0046268-0.0073701-0.0063948-0.017327-0.016623-0.047612-0.043426-0.0676-0.061995-0.73416-0.62813-3.0463-2.1002-3.1255-2.5281-5.745e-4 -4.2479e-4 -0.0014765-0.0015776-0.0020499-0.0020014zm7.3145 4.7769c-0.42972 0.068061-3.2955 2.5142-3.6832 2.3167-0.064759-0.032996-0.10894-0.17195-0.14109-0.37125-6.8e-4 -7.1e-6 -0.0015919 3.644e-4 -0.0022648 3.514e-4l0.26262 1.6855c0.034161 0.21942 0.078547 0.36679 0.14696 0.40165 0.38766 0.19752 3.2534-2.2492 3.6831-2.3173s3.9106 1.3731 4.2183 1.0655c0.050636-0.050636 0.053086-0.18818 0.022781-0.38392-0.049503-0.31974-0.10769-1.2196-0.26798-1.7276-2.898e-4 8.41e-5 -8.411e-4 9.22e-5 -0.0011324 1.757e-4 0.03079 0.19875 0.031382 0.34379-0.019892 0.39506-0.30765 0.30765-3.7885-1.133-4.2182-1.0649z"/>
  <path fill="url(#linearGradient6)" transform="matrix(.89124 .13825 -.13825 .8912 5.0029 4.1101)" d="m6.6387 6.8027c-0.30765 0.30765-3.7886-1.1333-4.2184-1.0653-0.42972 0.068061-3.295 2.5142-3.6827 2.3167-0.38766-0.19752-0.092874-3.9534-0.2904-4.3411s-3.4094-2.3568-3.3413-2.7866c0.068061-0.42972 3.7312-1.31 4.0389-1.6177 0.30765-0.30765 1.1879-3.9708 1.6177-4.0389 0.42972-0.068061 2.3989 3.1438 2.7866 3.3413s4.1436-0.097262 4.3411 0.2904c0.19752 0.38766-2.2486 3.253-2.3167 3.6827s1.3729 3.9107 1.0653 4.2184z"/>
  <path fill-opacity=".1" d="m6.3366-3.3333e-8c-0.39239 0.0012487-1.6837 3.1444-2.0004 3.376-0.31672 0.23164-3.703 0.50959-3.823 0.88315-0.12007 0.37356 2.4702 2.5723 2.5926 2.945 0.12244 0.37279-0.65977 3.6797-0.34158 3.9093 0.31819 0.22962 3.2105-1.5542 3.6029-1.5555 0.39239-0.00125 3.2955 1.7639 3.6122 1.5322 0.31672-0.23164-0.48645-3.5332-0.36639-3.9067 0.12007-0.37356 2.6964-2.5888 2.574-2.9616-0.12244-0.37279-3.5105-0.62924-3.8287-0.85886-0.31819-0.22962-1.6292-3.3644-2.0216-3.3631zm0 0.32918c0.056522 0.068363 0.12958 0.16951 0.21136 0.30231 0.17516 0.28446 0.38384 0.68043 0.59118 1.0847 0.20734 0.40426 0.41354 0.8168 0.59014 1.1483 0.088302 0.16572 0.16908 0.31104 0.24185 0.42788 0.072768 0.11684 0.11139 0.19871 0.23203 0.28577 0.12064 0.08706 0.20982 0.097462 0.34365 0.12971 0.13382 0.032246 0.29755 0.06298 0.48266 0.094568 0.37022 0.063178 0.82688 0.12852 1.2759 0.19792 0.44901 0.069401 0.89026 0.14405 1.2154 0.22066 0.15159 0.035714 0.27025 0.070764 0.35295 0.10284-0.04755 0.074883-0.12114 0.17468-0.22221 0.29352-0.21642 0.25448-0.52811 0.57655-0.84853 0.89865-0.32042 0.32211-0.64988 0.64533-0.91054 0.91571-0.13033 0.13519-0.24364 0.25694-0.33228 0.36225-0.088643 0.10531-0.15395 0.16791-0.19947 0.30954-0.045523 0.14163-0.028252 0.22864-0.01757 0.36587 0.010685 0.13723 0.032269 0.30305 0.059428 0.48886 0.054318 0.37161 0.13241 0.82587 0.20516 1.2743 0.072746 0.44847 0.13929 0.89079 0.16691 1.2237 0.012871 0.15513 0.015271 0.28041 0.010335 0.36897-0.085897-0.02213-0.20435-0.062689-0.3483-0.12196-0.30891-0.12718-0.71033-0.32449-1.1157-0.52968-0.40537-0.20519-0.81468-0.41701-1.1524-0.58136-0.16885-0.082173-0.31997-0.1534-0.44752-0.20516-0.12755-0.051759-0.20573-0.094524-0.3545-0.094051-0.14877 4.735e-4 -0.22831 0.044065-0.35553 0.096635-0.12722 0.05257-0.27713 0.12398-0.44545 0.20722-0.33665 0.16649-0.74471 0.38186-1.1488 0.58963-0.40405 0.20777-0.80553 0.40777-1.1136 0.53692-0.14388 0.06031-0.26098 0.09985-0.34675 0.12247-0.0055-0.08853-0.00312-0.21214 0.00878-0.36742 0.0255-0.33308 0.087728-0.77633 0.15761-1.2252 0.06989-0.44892 0.14597-0.90394 0.19792-1.2759 0.02598-0.18597 0.046517-0.35104 0.056327-0.48834 0.0098-0.1373 0.026773-0.22556-0.019637-0.3669-0.04643-0.14134-0.11274-0.20273-0.20206-0.30747-0.08931-0.10474-0.20316-0.22583-0.33435-0.36018-0.26238-0.26871-0.59324-0.59048-0.91571-0.91054-0.32246-0.32006-0.63669-0.63884-0.85473-0.89194-0.10179-0.11816-0.17573-0.21843-0.22376-0.29301 0.08251-0.032545 0.20092-0.069348 0.35192-0.10594 0.32467-0.078674 0.76635-0.1546 1.2149-0.22686 0.44856-0.072257 0.90505-0.14117 1.2749-0.20671 0.18491-0.032766 0.34852-0.065088 0.48214-0.098185 0.13362-0.033097 0.2215-0.044466 0.34158-0.13229 0.12008-0.087826 0.15742-0.17002 0.22944-0.28732 0.07202-0.11731 0.15253-0.2616 0.23978-0.42788 0.17449-0.33256 0.37867-0.74836 0.58343-1.1539s0.4106-0.80171 0.58394-1.0873c0.080618-0.13281 0.15173-0.23457 0.20774-0.30334z"/>
  <path fill="url(#radialGradient12)" d="m6.3366 0.32918c-0.056013 0.068768-0.12712 0.17053-0.20774 0.30334-0.17334 0.28557-0.37918 0.6817-0.58394 1.0873-0.20476 0.40557-0.40894 0.82137-0.58343 1.1539-0.087245 0.16628-0.16776 0.31058-0.23978 0.42788-0.072022 0.1173-0.10936 0.1995-0.22944 0.28732-0.12008 0.087826-0.20796 0.099195-0.34158 0.13229-0.13362 0.033097-0.29724 0.065419-0.48214 0.098185-0.36981 0.065531-0.8263 0.13445-1.2749 0.20671-0.44856 0.072257-0.89024 0.14819-1.2149 0.22686-0.151 0.036589-0.26941 0.073392-0.35192 0.10594 0.048029 0.074574 0.12197 0.17485 0.22376 0.29301 0.21803 0.2531 0.53226 0.57188 0.85473 0.89194 0.32246 0.32006 0.65333 0.64183 0.91571 0.91054 0.13119 0.13436 0.24504 0.25544 0.33435 0.36018 0.089312 0.10474 0.15562 0.16613 0.20205 0.30747 0.04641 0.14134 0.029437 0.2296 0.019637 0.3669-0.00981 0.1373-0.030347 0.30237-0.056327 0.48834-0.05195 0.37195-0.12803 0.82697-0.19792 1.2759-0.069885 0.44892-0.13211 0.89217-0.15761 1.2252-0.0119 0.15528-0.014285 0.27889-0.00879 0.36742 0.085771-0.02262 0.20287-0.06216 0.34675-0.12247 0.30809-0.12914 0.70957-0.32915 1.1136-0.53692 0.40405-0.20777 0.81212-0.42314 1.1488-0.58963 0.16832-0.083246 0.31823-0.15465 0.44545-0.20722s0.20676-0.096161 0.35553-0.096635c0.14877-4.73e-4 0.22695 0.042292 0.3545 0.094051 0.12755 0.051759 0.27867 0.12298 0.44752 0.20516 0.3377 0.16435 0.74702 0.37617 1.1524 0.58136 0.40537 0.20519 0.80678 0.4025 1.1157 0.52968 0.14394 0.05927 0.2624 0.09983 0.3483 0.12196 0.00494-0.08856 0.00254-0.21384-0.010335-0.36897-0.027618-0.33291-0.094164-0.77523-0.16691-1.2237-0.072746-0.44847-0.15084-0.90273-0.20516-1.2743-0.027159-0.1858-0.048743-0.35163-0.059428-0.48886-0.010682-0.13723-0.027953-0.22424 0.01757-0.36587 0.045523-0.14163 0.11083-0.20423 0.19947-0.30954 0.088643-0.10531 0.20195-0.22706 0.33228-0.36225 0.26066-0.27038 0.59012-0.5936 0.91054-0.91571 0.32042-0.3221 0.63211-0.64417 0.84853-0.89865 0.10107-0.11884 0.17466-0.21864 0.22221-0.29352-0.0827-0.032072-0.20136-0.067122-0.35295-0.10284-0.32517-0.07661-0.76642-0.15126-1.2154-0.22066-0.44901-0.069401-0.90567-0.13474-1.2759-0.19792-0.18511-0.031588-0.34883-0.062322-0.48266-0.094568-0.13382-0.032246-0.22301-0.042648-0.34365-0.12971-0.12064-0.08706-0.15926-0.16893-0.23203-0.28577-0.072768-0.11684-0.15354-0.26216-0.24185-0.42788-0.1766-0.33145-0.38281-0.74399-0.59014-1.1483-0.20734-0.40426-0.41602-0.80023-0.59118-1.0847-0.081773-0.1328-0.15483-0.23394-0.21136-0.30231zm0.00207 0.50229c0.05164 0.062458 0.11856 0.15514 0.19327 0.27647 0.16003 0.25989 0.35059 0.62129 0.54002 0.99064 0.18943 0.36934 0.37764 0.74621 0.53899 1.049 0.080674 0.15141 0.15469 0.28444 0.22118 0.39119 0.066483 0.10675 0.10166 0.18143 0.21187 0.26097 0.11022 0.07954 0.19193 0.088878 0.31419 0.11834s0.27168 0.057954 0.4408 0.086816c0.33824 0.057722 0.75559 0.11746 1.1658 0.18087 0.41023 0.063407 0.81293 0.13155 1.11 0.20154 0.1385 0.032626 0.2469 0.064232 0.32246 0.093534-0.04345 0.068416-0.11024 0.15962-0.20257 0.2682-0.19773 0.2325-0.48292 0.52686-0.77566 0.82114-0.29274 0.29428-0.59333 0.58962-0.83147 0.83664-0.11907 0.12351-0.22287 0.23503-0.30386 0.33125-0.080986 0.096213-0.14031 0.15327-0.1819 0.28267-0.041592 0.1294-0.026296 0.20897-0.016536 0.33435 0.00977 0.12538 0.029964 0.27673 0.054777 0.44648 0.049629 0.33951 0.12061 0.75454 0.18707 1.1643 0.066462 0.40973 0.12721 0.81361 0.15245 1.1178 0.01176 0.14173 0.014331 0.25653 0.00982 0.33745-0.07848-0.02023-0.18682-0.05746-0.31833-0.11162-0.28222-0.1162-0.64922-0.29622-1.0196-0.48369-0.37035-0.18747-0.74412-0.38108-1.0526-0.53123-0.15427-0.075075-0.29223-0.1403-0.40876-0.18759-0.11653-0.047289-0.18809-0.086216-0.32401-0.085783-0.13592 4.325e-4 -0.20881 0.040339-0.32504 0.088367-0.11623 0.048029-0.25291 0.11308-0.40669 0.18914-0.30757 0.15211-0.6804 0.34917-1.0495 0.53899-0.36915 0.18982-0.73603 0.37242-1.0175 0.49041-0.13145 0.0551-0.23841 0.09097-0.31678 0.11162-0.00503-0.08088-0.00259-0.19351 0.00827-0.33538 0.023297-0.30431 0.079812-0.70968 0.14366-1.1198 0.063853-0.41014 0.1334-0.82548 0.18087-1.1653 0.023735-0.16991 0.042716-0.32104 0.051676-0.44648 0.00896-0.12544 0.024314-0.20573-0.018087-0.33486-0.042431-0.12913-0.10289-0.18542-0.18449-0.28112-0.081597-0.095698-0.18555-0.20643-0.30541-0.32918-0.23972-0.2455-0.54203-0.53906-0.83664-0.83147-0.29461-0.29241-0.58163-0.5837-0.78083-0.81494-0.092999-0.10795-0.16076-0.19955-0.20464-0.26768 0.075383-0.029736 0.18347-0.063725 0.32143-0.097152 0.29663-0.071879 0.70019-0.14121 1.11-0.20722 0.40982-0.066016 0.82692-0.12875 1.1648-0.18862 0.16893-0.029935 0.31821-0.059677 0.44028-0.089917 0.12208-0.030239 0.20242-0.040683 0.31213-0.12092 0.10971-0.080241 0.14401-0.15534 0.20981-0.26252 0.065799-0.10717 0.1394-0.23875 0.21911-0.39067 0.15942-0.30384 0.34571-0.68366 0.53278-1.0542 0.18707-0.37054 0.37545-0.73284 0.53382-0.99374 0.073655-0.12134 0.13848-0.21416 0.18965-0.27699z"/>
</svg>
