<?xml version="1.0" encoding="UTF-8" standalone="no"?>
<!-- Created with Inkscape (http://www.inkscape.org/) -->

<svg
   width="48"
   height="48"
   viewBox="0 0 12.7 12.7"
   version="1.1"
   id="svg1"
   inkscape:version="1.3.2 (091e20e, 2023-11-25)"
   sodipodi:docname="estrela.svg"
   xmlns:inkscape="http://www.inkscape.org/namespaces/inkscape"
   xmlns:sodipodi="http://sodipodi.sourceforge.net/DTD/sodipodi-0.dtd"
   xmlns:xlink="http://www.w3.org/1999/xlink"
   xmlns="http://www.w3.org/2000/svg"
   xmlns:svg="http://www.w3.org/2000/svg">
  <sodipodi:namedview
     id="namedview1"
     pagecolor="#ffffff"
     bordercolor="#666666"
     borderopacity="1.0"
     inkscape:showpageshadow="2"
     inkscape:pageopacity="0.0"
     inkscape:pagecheckerboard="0"
     inkscape:deskcolor="#d1d1d1"
     inkscape:document-units="px"
     inkscape:zoom="11.313708"
     inkscape:cx="36.150834"
     inkscape:cy="27.223611"
     inkscape:window-width="1858"
     inkscape:window-height="1016"
     inkscape:window-x="1982"
     inkscape:window-y="27"
     inkscape:window-maximized="1"
     inkscape:current-layer="layer1" />
  <defs
     id="defs1">
    <linearGradient
       id="linearGradient11"
       inkscape:collect="always">
      <stop
         style="stop-color:#ffffff;stop-opacity:1;"
         offset="0"
         id="stop11" />
      <stop
         style="stop-color:#ffffff;stop-opacity:0;"
         offset="1"
         id="stop12" />
    </linearGradient>
    <linearGradient
       id="linearGradient5"
       inkscape:collect="always">
      <stop
         style="stop-color:#ffffff;stop-opacity:0.5;"
         offset="0"
         id="stop5" />
      <stop
         style="stop-color:#ffffff;stop-opacity:0;"
         offset="1"
         id="stop6" />
    </linearGradient>
    <linearGradient
       inkscape:collect="always"
       xlink:href="#linearGradient5"
       id="linearGradient6"
       x1="2.7213187"
       y1="7.4355106"
       x2="0.83257866"
       y2="-4.7401772"
       gradientUnits="userSpaceOnUse" />
    <radialGradient
       inkscape:collect="always"
       xlink:href="#linearGradient11"
       id="radialGradient12"
       cx="5.493475"
       cy="6.320457"
       fx="5.493475"
       fy="6.320457"
       r="5.5234355"
       gradientTransform="matrix(1.8167612,0,1.272567e-5,1.8137959,-3.739489,-2.8371284)"
       gradientUnits="userSpaceOnUse" />
  </defs>
  <g
     inkscape:label="Camada 1"
     inkscape:groupmode="layer"
     id="layer1">
    <path
       id="path4"
       style="fill:#ffcc00;fill-opacity:1;stroke:none;stroke-width:0.529167;paint-order:markers fill stroke"
       inkscape:transform-center-x="0.0098145492"
       inkscape:transform-center-y="-0.57537659"
       d="M 6.3365633,0 C 5.9441703,0.00124868 4.6528886,3.1443767 4.3361696,3.3760213 4.0194506,3.6076659 0.63321563,3.8856114 0.51314663,4.2591715 c -0.003,0.00943 -0.0034,0.020854 -0.0031,0.032556 l 0.0031,1.5337565 c 0.0011,0.3458265 1.89175097,2.074714 2.45152997,2.7398845 -0.124932,0.7869304 -0.277896,1.7028975 -0.274918,2.1977985 -6.05e-4,-10e-5 -0.0015,1.05e-4 -0.0021,0 l 0.001,1.538408 c 1.1e-4,0.20027 0.0193,0.337747 0.07545,0.378271 0.318186,0.229624 3.2104867,-1.554729 3.6028807,-1.555977 0.392392,-0.0012 3.295462,1.764367 3.612182,1.532723 0.05213,-0.03813 0.07333,-0.160365 0.07338,-0.338998 8.6e-5,-0.291797 0.07264,-1.101836 0,-1.576648 -2.7e-4,3.5e-5 -7.63e-4,-3.4e-5 -10e-4,0 C 10.051652,10.244237 9.8914653,9.3222936 9.7611303,8.5333291 10.329795,7.8560235 12.186036,6.1321075 12.186821,5.788277 l 0.0025,-1.5459564 c 2.67e-4,-0.011705 5.39e-4,-0.010944 -0.0026,-0.020358 C 12.064408,3.8491761 8.6763333,3.5927264 8.3581453,3.3631022 8.0399583,3.133478 6.7289573,-0.00124868 6.3365633,0 Z"
       sodipodi:nodetypes="sssccccccccsscccccsss" />
    <path
       id="path1"
       style="fill:#000000;fill-opacity:0.15000001;stroke:none;stroke-width:0.586738;paint-order:markers fill stroke"
       inkscape:transform-center-x="0.0098145492"
       inkscape:transform-center-y="-0.57537659"
       d="M 7.6334231 -2.7800655 C 7.6333051 -2.7799003 7.6330628 -2.7795767 7.6329447 -2.7794114 C 7.6333478 -2.7763549 7.6346054 -2.7742307 7.6348285 -2.7710059 L 7.6334231 -2.7800655 z M 7.6348285 -2.7710059 C 7.6661085 -2.318816 5.9406949 -0.22480848 5.4412701 0.59260653 C 5.4305769 0.61182531 5.4137185 0.63942807 5.4042789 0.65690961 C 5.3994644 0.66582574 5.3924127 0.6776711 5.387936 0.6861179 C 5.3661691 0.7271888 5.3485447 0.76253573 5.3353141 0.79169565 C 5.3233895 0.81988681 5.3101545 0.84891991 5.3071376 0.86796793 C 5.3034181 0.89145171 5.3057682 0.92764252 5.3105306 0.96833552 C 5.3125024 0.98500747 5.3158791 1.0045245 5.3191385 1.0238256 C 5.3230223 1.0469347 5.3287662 1.0730577 5.3343934 1.0997389 C 5.3442357 1.1463384 5.3601451 1.2063335 5.3747625 1.262793 C 5.3998503 1.3597709 5.4297869 1.4667331 5.4663464 1.5877985 C 5.4827364 1.6420729 5.4979275 1.6935491 5.5161261 1.7517121 C 5.5708341 1.9265641 5.6300195 2.1110999 5.6956077 2.3106787 C 5.6967777 2.3142387 5.697891 2.3181744 5.699063 2.3217397 C 6.2070104 1.4829548 7.9478235 -0.7214563 7.8902418 -1.0983289 L 7.6348285 -2.7710059 z M -5.1601086 -0.75547304 L -4.8939671 0.92655689 C -4.8339962 1.305299 -2.4685913 2.8783154 -1.7421973 3.5120079 C -1.7421707 3.5044884 -1.7423387 3.4963287 -1.7423135 3.4888319 C -1.7415973 3.2753672 -1.7423526 3.0774845 -1.7444558 2.8919185 C -1.7450345 2.8422792 -1.7461906 2.7982343 -1.747115 2.7514274 C -1.7498892 2.6074005 -1.7553606 2.4821631 -1.7625331 2.3716978 C -1.7654799 2.3268789 -1.7676243 2.2772115 -1.7714989 2.2391432 C -1.7751686 2.2027195 -1.779028 2.1680645 -1.7836485 2.1383944 C -1.7859322 2.1237689 -1.7883581 2.1083227 -1.7908901 2.0954492 C -1.7990591 2.053949 -1.8079417 2.0182598 -1.8189812 1.9965934 C -1.8277154 1.9794517 -1.848963 1.9554985 -1.8689408 1.9324419 C -1.8914207 1.9078444 -1.9203927 1.8789291 -1.9555657 1.8449856 C -1.9562673 1.8443339 -1.9569093 1.8436383 -1.9576157 1.8429842 C -1.9594275 1.841239 -1.9631429 1.8383574 -1.9649858 1.8365894 C -1.9823131 1.8199664 -2.0125979 1.7931638 -2.0325855 1.7745944 C -2.7667419 1.1464638 -5.0788478 -0.32559952 -5.1580587 -0.75347164 C -5.1586332 -0.75389643 -5.1595352 -0.75504922 -5.1601086 -0.75547304 z M 2.1544164 4.0214421 C 1.7246947 4.0895034 -1.1411122 6.535663 -1.5287698 6.3381416 C -1.5935284 6.3051454 -1.6377087 6.166196 -1.6698552 5.9668888 C -1.6705352 5.9668817 -1.6714471 5.9672532 -1.67212 5.9672402 L -1.4095027 7.6527161 C -1.3753418 7.8721352 -1.3309557 8.0195106 -1.2625418 8.0543693 C -0.8748847 8.2518906 1.9908351 5.8051647 2.4205565 5.7371036 C 2.8502779 5.6690425 6.3311899 7.1102297 6.6388364 6.8025832 C 6.6894723 6.7519474 6.6919225 6.6144076 6.6616175 6.4186676 C 6.6121145 6.0989272 6.5539252 5.1990263 6.3936329 4.6911154 C 6.3933431 4.6911995 6.3927918 4.6912076 6.3925005 4.6912911 C 6.4232907 4.8900444 6.4238829 5.0350811 6.3726085 5.0863556 C 6.0649617 5.3940024 2.5841382 3.9533809 2.1544164 4.0214421 z "
       transform="matrix(0.89123709,0.13824692,-0.13825217,0.89120312,5.0029305,5.6763097)" />
    <path
       sodipodi:type="star"
       style="fill:url(#linearGradient6);fill-opacity:1;stroke:none;stroke-width:0.586738;paint-order:markers fill stroke"
       id="path5"
       inkscape:flatsided="false"
       sodipodi:sides="5"
       sodipodi:cx="1.8269693"
       sodipodi:cy="1.9909173"
       sodipodi:r1="6.8048191"
       sodipodi:r2="3.7931476"
       sodipodi:arg1="0.78539816"
       sodipodi:arg2="1.4137167"
       inkscape:rounded="0.1"
       inkscape:randomized="0"
       d="M 6.638703,6.802651 C 6.3310559,7.1102982 2.8500705,5.6693036 2.4203483,5.737365 1.9906261,5.8054263 -0.87469595,8.2515772 -1.2623539,8.0540556 -1.6500119,7.8565339 -1.3552284,4.1006283 -1.55275,3.7129703 -1.7502716,3.3253123 -4.9621325,1.3561313 -4.8940712,0.92640911 c 0.068061,-0.4297222 3.731233,-1.31000503 4.03888012,-1.61765217 0.30764712,-0.30764712 1.18792989,-3.97081884 1.61765209,-4.03888014 0.42972219,-0.068061 2.39890319,3.1437997 2.78656119,3.3413213 0.387658,0.1975216 4.1435637,-0.097262 4.3410853,0.290396 C 8.0876291,-0.71074792 5.6414782,2.1545742 5.5734169,2.5842964 5.5053556,3.0140186 6.9463501,6.4950039 6.638703,6.802651 Z"
       inkscape:transform-center-x="0.0098145492"
       inkscape:transform-center-y="-0.57537659"
       transform="matrix(0.89123709,0.13824692,-0.13825217,0.89120312,5.0029313,4.110093)" />
    <path
       id="path7"
       style="color:#000000;fill:#000000;fill-opacity:0.1;stroke-width:0.901879;-inkscape-stroke:none;paint-order:markers fill stroke"
       d="M 6.3365642,-3.3333334e-8 C 5.9441705,0.00124867 4.652888,3.1443768 4.336169,3.3760213 4.0194501,3.6076659 0.63321607,3.8856114 0.51314737,4.2591715 0.39307837,4.6327317 2.9833101,6.831423 3.1057541,7.2042114 3.2281971,7.5769999 2.4459851,10.883909 2.7641721,11.113534 3.0823591,11.343157 5.9746596,9.5593229 6.3670533,9.5580729 6.7594469,9.5568229 9.6625168,11.321924 9.9792358,11.090279 10.295955,10.858634 9.4927814,7.557101 9.6128499,7.1835409 9.7329186,6.8099807 12.309297,4.5947528 12.186853,4.2219645 12.064409,3.8491761 8.6763333,3.5927264 8.3581463,3.3631022 8.0399592,3.133478 6.7289578,-0.00124843 6.3365642,-3.3333334e-8 Z m 0,0.329178903333334 c 0.056522,0.068363 0.1295838,0.1695057 0.2113566,0.3023071 0.1751557,0.2844577 0.3838421,0.68042563 0.5911784,1.08468833 0.2073364,0.4042626 0.4135409,0.8168027 0.5901449,1.1482503 0.088302,0.1657239 0.1690779,0.3110364 0.2418457,0.4278809 0.072768,0.1168444 0.111389,0.1987104 0.2320272,0.2857707 0.1206382,0.08706 0.209824,0.097462 0.3436482,0.1297078 0.1338243,0.032246 0.2975475,0.06298 0.4826579,0.094568 0.3702205,0.063178 0.8268786,0.1285199 1.2758909,0.1979207 0.449013,0.069401 0.890264,0.1440481 1.21543,0.2206584 0.151594,0.035714 0.27025,0.070764 0.35295,0.102836 -0.04755,0.074883 -0.121141,0.1746806 -0.222209,0.2935221 -0.21642,0.2544793 -0.528106,0.576548 -0.848527,0.8986532 C 10.482537,5.8380479 10.153083,6.1612718 9.8924194,6.4316488 9.7620876,6.5668373 9.6487834,6.6885901 9.5601401,6.7939006 9.4714971,6.899211 9.4061922,6.9618098 9.360669,7.1034424 9.315146,7.2450749 9.332417,7.3320781 9.343099,7.4693115 c 0.010685,0.137234 0.032269,0.3030542 0.059428,0.4888591 0.054318,0.3716099 0.1324095,0.8258747 0.2051553,1.2743408 0.072746,0.448466 0.1392928,0.8907866 0.1669149,1.2236976 0.012871,0.155129 0.015271,0.28041 0.010335,0.36897 C 9.6990355,10.803049 9.580578,10.76249 9.4366334,10.703223 9.1277223,10.576042 8.7263065,10.37873 8.3209392,10.173539 7.9155719,9.9683483 7.5062579,9.7565248 7.1685548,9.5921794 6.9997033,9.5100065 6.8485893,9.4387827 6.7210369,9.3870239 6.5934845,9.335265 6.5153097,9.2924998 6.3665366,9.2929728 6.2177633,9.2934463 6.138223,9.3370378 6.0110026,9.3896078 5.8837823,9.4421778 5.733877,9.5135847 5.565552,9.5968303 5.228901,9.7633218 4.820838,9.9786919 4.416785,10.186458 c -0.4040529,0.207767 -0.8055339,0.407774 -1.1136269,0.536918 -0.14388,0.06031 -0.260978,0.09985 -0.346749,0.122474 -0.0055,-0.08853 -0.00312,-0.212136 0.00878,-0.36742 0.0255,-0.333081 0.087728,-0.776328 0.157613,-1.2252479 0.06989,-0.44892 0.145971,-0.9039428 0.197921,-1.2758911 0.02598,-0.1859742 0.046517,-0.3510434 0.056327,-0.4883423 C 3.3868501,7.3516494 3.4038231,7.2633854 3.3574131,7.122046 3.3109831,6.9807059 3.2446701,6.9193154 3.1553581,6.8145712 3.0660481,6.7098269 2.9522011,6.5887428 2.8210111,6.4543865 2.5586321,6.185674 2.2277691,5.863907 1.9053051,5.5438478 1.5828401,5.2237885 1.2686121,4.9050087 1.0505771,4.6519125 0.94878607,4.5337525 0.87484707,4.4334814 0.82681807,4.3589072 c 0.08251,-0.032545 0.20091803,-0.069348 0.35191603,-0.1059367 0.324672,-0.078674 0.766352,-0.1546024 1.214913,-0.2268596 0.448562,-0.072257 0.905047,-0.1411747 1.274858,-0.2067057 0.184906,-0.032766 0.348525,-0.065088 0.482141,-0.098185 C 4.2842631,3.6881232 4.372146,3.6767542 4.492227,3.5889285 4.612309,3.5011025 4.649649,3.4189126 4.721671,3.3016076 4.793691,3.1843025 4.874204,3.0400091 4.961449,2.8737267 5.13594,2.5411617 5.340117,2.125366 5.544876,1.719792 5.749635,1.314218 5.9554784,0.91808647 6.1288199,0.63251987 c 0.080618,-0.1328111 0.151726,-0.2345729 0.2077393,-0.3033407 z" />
    <path
       id="path10"
       style="color:#000000;fill:url(#radialGradient12);fill-opacity:1;stroke-width:0.901879;-inkscape-stroke:none;paint-order:markers fill stroke"
       d="M 6.3365642,0.32917887 C 6.280551,0.3979466 6.2094428,0.49970856 6.1288248,0.63251953 5.9554835,0.91808585 5.7496399,1.3142181 5.5448812,1.7197917 5.3401224,2.1253653 5.1359451,2.5411617 4.9614542,2.8737264 4.8742093,3.0400086 4.7936955,3.1843023 4.7216756,3.3016073 4.6496537,3.4189121 4.6123141,3.5011023 4.4922322,3.5889282 4.3721513,3.6767542 4.284268,3.6881232 4.1506511,3.7212199 4.0170352,3.7543169 3.8534158,3.7866389 3.66851,3.8194049 3.2986994,3.8849359 2.842214,3.9538537 2.3936524,4.0261106 1.9450919,4.0983676 1.5034112,4.1742963 1.1787395,4.2529702 1.0277416,4.2895592 0.90933287,4.3263622 0.82682297,4.3589069 c 0.048029,0.074574 0.121968,0.1748455 0.22375893,0.2930053 0.2180348,0.253096 0.5322635,0.5718763 0.8547282,0.8919353 0.3224637,0.3200588 0.6533277,0.6418265 0.9157064,0.9105387 0.1311899,0.1343562 0.2450366,0.2554405 0.3343465,0.3601847 0.089312,0.1047441 0.1556249,0.1661348 0.2020549,0.3074748 0.04641,0.1413393 0.029437,0.2296035 0.019637,0.3669027 -0.00981,0.1372987 -0.030347,0.3023682 -0.056327,0.4883423 C 3.2687779,8.3492386 3.1926971,8.8042622 3.1228072,9.2531818 3.0529222,9.7021012 2.990694,10.14535 2.9651941,10.47843 c -0.0119,0.155284 -0.014285,0.27889 -0.00879,0.36742 0.085771,-0.02262 0.202869,-0.06216 0.3467488,-0.122474 0.3080927,-0.129143 0.7095745,-0.329151 1.113627,-0.536918 C 4.8208325,9.9786922 5.2288964,9.7633214 5.565547,9.59683 5.7338719,9.513584 5.8837777,9.4421775 6.0109979,9.3896075 c 0.1272202,-0.05257 0.2067608,-0.096161 0.3555339,-0.096635 0.148773,-4.73e-4 0.2269481,0.042292 0.3545004,0.094051 0.1275522,0.051759 0.2786665,0.1229826 0.4475179,0.2051555 0.3377027,0.1643452 0.7470175,0.3761693 1.1523844,0.58136 0.4053669,0.205191 0.8067834,0.402503 1.1156942,0.529684 0.1439444,0.05927 0.2624025,0.09983 0.3482991,0.121956 0.00494,-0.08856 0.00254,-0.213841 -0.010335,-0.36897 C 9.7469751,10.123299 9.6804283,9.6809769 9.6076823,9.2325114 9.5349366,8.7840457 9.4568449,8.3297801 9.4025269,7.9581706 9.3753679,7.7723659 9.353784,7.6065454 9.343099,7.4693115 9.332417,7.3320783 9.3151461,7.2450747 9.360669,7.1034424 9.4061922,6.9618099 9.4714971,6.8992108 9.56014,6.7939006 9.6487832,6.6885902 9.7620878,6.5668371 9.8924195,6.4316488 10.153083,6.161272 10.482537,5.8380476 10.802958,5.5159424 11.123379,5.1938375 11.435065,4.8717683 11.651485,4.6172892 11.752553,4.4984478 11.826144,4.39865 11.873694,4.3237671 11.790994,4.2916951 11.672338,4.256645 11.520744,4.220931 11.195578,4.1443208 10.754327,4.0696736 10.305314,4.0002726 9.8563023,3.9308719 9.3996432,3.8655298 9.0294231,3.8023519 8.8443129,3.7707639 8.6805894,3.74003 8.5467652,3.707784 8.4129411,3.6755382 8.323755,3.6651361 8.2031169,3.5780762 8.0824788,3.491016 8.0438577,3.4091498 7.9710897,3.2923055 7.898322,3.1754611 7.817546,3.0301484 7.729244,2.8644246 7.5526402,2.5329774 7.3464354,2.1204365 7.1390992,1.7161743 6.9317631,1.311912 6.7230763,0.91594342 6.5479208,0.631486 6.4661481,0.49868474 6.3930861,0.39754181 6.3365642,0.32917887 Z m 0.00207,0.50229493 c 0.05164,0.062458 0.1185604,0.15513836 0.1932698,0.2764689 0.1600264,0.2598872 0.3505912,0.6212932 0.5400187,0.9906372 0.1894272,0.3693437 0.3776355,0.7462135 0.5389852,1.0490316 0.080674,0.1514093 0.1546926,0.2844388 0.2211751,0.3911906 0.066483,0.1067519 0.1016556,0.1814256 0.2118734,0.260966 0.1102179,0.07954 0.1919276,0.088878 0.3141927,0.118339 0.1222651,0.029461 0.2716787,0.057954 0.4408,0.086816 0.3382421,0.057722 0.7555921,0.1174615 1.1658203,0.1808675 0.4102286,0.063407 0.8129306,0.1315452 1.1100096,0.2015381 0.1385,0.032626 0.246904,0.064232 0.322461,0.093534 -0.04345,0.068416 -0.110236,0.159625 -0.202574,0.2682014 -0.197727,0.2324986 -0.48292,0.5268556 -0.775664,0.8211385 C 10.126258,5.8644859 9.8256769,6.1598211 9.5875285,6.4068441 9.4684543,6.5303554 9.3646579,6.6418757 9.2836711,6.73809 c -0.080986,0.096213 -0.14031,0.1532715 -0.181901,0.2826701 -0.041592,0.129399 -0.026296,0.208967 -0.016536,0.3343465 0.00977,0.1253801 0.029964,0.2767287 0.054777,0.4464844 0.049629,0.3395117 0.1206066,0.7545408 0.1870687,1.16427 0.066462,0.4097292 0.1272093,0.813606 0.1524455,1.117761 0.01176,0.141729 0.014331,0.256533 0.00982,0.337447 -0.07848,-0.02023 -0.1868175,-0.05746 -0.3183288,-0.111621 C 8.8887919,10.193253 8.5217938,10.013225 8.1514405,9.8257568 7.7810895,9.63829 7.407325,9.4446728 7.0987916,9.2945231 6.9445248,9.2194477 6.8065659,9.1542255 6.690031,9.1069377 6.5734961,9.0596487 6.5019425,9.0207218 6.3660198,9.0211548 6.2300971,9.0215873 6.1572064,9.0614935 6.0409749,9.1095215 5.9247436,9.1575504 5.7880674,9.2226022 5.6342814,9.2986572 5.3267093,9.4507675 4.9538853,9.6478225 4.584733,9.8376424 4.2155806,10.02746 3.8487053,10.210061 3.5672242,10.328052 c -0.1314523,0.0551 -0.2384141,0.09097 -0.3167765,0.111621 -0.00503,-0.08088 -0.00259,-0.193511 0.00827,-0.33538 C 3.2820147,9.7999821 3.3385297,9.3946081 3.4023782,8.9844645 3.4662312,8.5743205 3.535783,8.1589818 3.5832457,7.819161 3.6069807,7.6492508 3.6259617,7.4981162 3.6349217,7.3726766 3.6438817,7.247236 3.6592357,7.1669445 3.6168347,7.0378133 3.5744034,6.9086828 3.5139464,6.8523901 3.4323487,6.7566935 3.3507516,6.6609959 3.2467993,6.5502656 3.126941,6.4275146 2.8872254,6.1820125 2.5849104,5.8884545 2.2902995,5.5960409 1.9956881,5.3036271 1.7086704,5.0123382 1.5094687,4.7811035 1.4164698,4.6731497 1.3487102,4.5815523 1.30483,4.5134196 1.380213,4.4836836 1.4883021,4.4496946 1.6262574,4.4162676 1.9228856,4.3443886 2.3264513,4.2750611 2.7362672,4.2090451 3.1460839,4.1430291 3.5631858,4.0802969 3.9010539,4.0204261 4.0699884,3.9904911 4.2192625,3.9607491 4.341337,3.9305091 4.4634127,3.9002701 4.543754,3.8898261 4.6534627,3.8095863 4.7631728,3.7293453 4.7974679,3.6542427 4.863269,3.54707 4.9290679,3.4398974 5.0026682,3.3083159 5.0823771,3.1563962 5.2417962,2.8525569 5.4280884,2.4727389 5.6151611,2.102197 5.8022336,1.7316549 5.9906098,1.3693594 6.1489786,1.1084592 6.2226336,0.98711975 6.2874563,0.89430137 6.3386313,0.8314735 Z" />
  </g>
</svg>
