<?xml version="1.0" encoding="UTF-8" standalone="no"?>
<svg
   xmlns="http://www.w3.org/2000/svg"
   id="svg1334"
   version="1.1"
   viewBox="0 0 58.208332 8.9958336"
   height="34"
   width="220">
  <path
     id="path6582"
     d="m 12.427087,0.014047 c -0.622861,0 -1.204183,0.116197 -1.743998,0.348738 C 10.143276,0.595317 9.673992,0.910951 9.275361,1.309576 8.885037,1.708209 8.57773,2.177498 8.3535,2.717305 8.129272,3.257119 8.017222,3.830123 8.017222,4.436377 c 0,0.672687 0.11205,1.291468 0.336278,1.856193 0.22423,0.556422 0.527378,1.034028 0.909395,1.432661 0.390324,0.398626 0.842971,0.709786 1.357862,0.934017 0.5149,0.215922 1.062941,0.324119 1.644273,0.324119 0.880312,0 1.656901,-0.311476 2.329589,-0.934332 v 0.871998 h 1.694142 V 4.299244 h -3.413205 v 1.482528 h 1.719063 v 0.273945 c -0.639467,0.739119 -1.357801,1.108851 -2.155065,1.108851 -0.348805,0 -0.668589,-0.06658 -0.95926,-0.19946 C 11.19793,6.832237 10.953037,6.64976 10.745423,6.417229 10.5378,6.176386 10.375823,5.893737 10.259555,5.569847 10.143286,5.245962 10.085032,4.893192 10.085032,4.51117 c 0,-0.373714 0.05406,-0.722635 0.162056,-1.046527 0.10796,-0.323882 0.261619,-0.606223 0.460934,-0.847063 0.199317,-0.249145 0.435883,-0.439942 0.709938,-0.572816 0.282364,-0.141181 0.593839,-0.211924 0.934327,-0.211924 0.440161,0 0.84703,0.112045 1.220739,0.336268 0.382027,0.215931 0.672688,0.523242 0.872003,0.921867 L 15.964948,1.945039 C 15.657672,1.347093 15.196707,0.877804 14.582153,0.537311 13.9676,0.188507 13.249264,0.014047 12.427087,0.014047 Z m 34.037295,0.01247 c -0.66438,0 -1.2582,0.132843 -1.78139,0.398595 -0.52321,0.257452 -0.96337,0.59389 -1.32048,1.009125 -0.35709,0.415243 -0.63111,0.88869 -0.82213,1.420195 -0.1827,0.523204 -0.27425,1.050435 -0.27425,1.581947 0,0.564718 0.0999,1.121082 0.29918,1.669198 0.20762,0.539816 0.49413,1.025742 0.85954,1.457595 0.36541,0.423545 0.8014,0.768308 1.30799,1.034061 0.5066,0.265751 1.06296,0.398595 1.66921,0.398601 0.34049,0 0.68526,-0.04576 1.03405,-0.137125 0.35711,-0.09136 0.69324,-0.224209 1.00883,-0.398604 0.31557,-0.1744 0.60207,-0.386313 0.85953,-0.635453 0.25743,-0.257452 0.45687,-0.552282 0.59805,-0.884476 l -0.7224,-0.373662 c -0.14118,0.290666 -0.31565,0.540028 -0.52327,0.747648 -0.20762,0.199312 -0.43617,0.369307 -0.68532,0.51049 -0.24083,0.132872 -0.49405,0.232744 -0.7598,0.299177 -0.25745,0.05815 -0.51066,0.08695 -0.7598,0.08695 -0.47338,0 -0.91354,-0.09956 -1.32048,-0.29887 -0.39862,-0.207621 -0.74755,-0.48164 -1.04652,-0.822141 -0.29066,-0.348794 -0.52306,-0.747339 -0.69747,-1.195802 -0.1661,-0.448455 -0.24933,-0.917746 -0.24933,-1.407728 0,-0.448455 0.0707,-0.888617 0.21193,-1.320463 0.14118,-0.440152 0.34893,-0.83454 0.62299,-1.183342 0.28236,-0.348804 0.62681,-0.631143 1.03375,-0.847066 0.40693,-0.215923 0.87623,-0.32412 1.40774,-0.32412 0.24082,0 0.48572,0.02911 0.73487,0.08727 0.24914,0.0498 0.49017,0.137213 0.72272,0.261786 0.23252,0.124571 0.44828,0.286234 0.6476,0.485553 0.20762,0.199314 0.38208,0.444517 0.52325,0.735183 l 0.68502,-0.423538 C 49.462232,1.384474 49.047052,0.91935 48.482332,0.56224 47.925902,0.205135 47.253342,0.026518 46.464382,0.026517 Z M 0,0.076387 v 8.844651 h 4.310132 c 0.406939,0 0.792995,-0.04576 1.158405,-0.137126 C 5.833948,8.684262 6.153742,8.543084 6.427808,8.360383 6.701863,8.169371 6.917935,7.932805 7.075723,7.650443 7.23352,7.368081 7.312268,7.0358 7.312268,6.653778 7.312268,6.05584 7.162778,5.565745 6.863799,5.183723 6.573138,4.801699 6.174586,4.536005 5.667994,4.386516 6.091539,4.195503 6.407174,3.913165 6.614797,3.539449 6.830719,3.165735 6.938599,2.767192 6.938599,2.343647 6.938599,2.061285 6.888669,1.78726 6.789009,1.521508 6.697702,1.247456 6.56481,1.006409 6.390408,0.798796 6.216005,0.582866 6.004403,0.408721 5.75526,0.275841 5.506118,0.142968 5.227622,0.07639 4.920345,0.07639 Z m 17.686203,0 v 8.844651 h 0.872004 V 1.658325 l 3.226515,5.618447 h 0.510491 l 3.226529,-5.618447 v 7.262719 h 0.87199 V 0.076387 h -0.88446 L 22.033735,6.130521 18.58313,0.076387 Z m 13.505399,0 -3.69992,8.844651 h 0.93434 l 1.13378,-2.765591 h 3.97354 l 1.14628,2.765591 h 0.92185 l -3.675,-8.844651 z m 3.74543,0 v 0.772265 h 3.15142 v 8.072386 h 0.87199 V 0.848652 h 3.15173 V 0.076387 Z m 16.29499,0 v 8.844651 h 0.872 V 4.785126 h 5.24447 v 4.135918 h 0.85984 V 0.076387 h -0.85984 v 3.936467 h -5.24447 V 0.076387 Z m -19.67921,1.02159 1.78139,4.372464 h -3.58772 z M 2.042876,1.820384 h 2.080266 c 0.215921,0 0.398713,0.07906 0.548191,0.236853 0.157798,0.15779 0.236857,0.381877 0.236857,0.672539 0,0.315584 -0.0874,0.547991 -0.26179,0.697481 C 4.472008,3.576741 4.272581,3.651643 4.048352,3.651643 H 2.042876 Z m 0,3.438132 h 2.354522 c 0.240836,0 0.43995,0.09571 0.597747,0.286724 0.157788,0.191006 0.236857,0.423413 0.236857,0.697474 0,0.282363 -0.0874,0.510606 -0.26179,0.685007 C 4.795809,7.102122 4.57589,7.189507 4.310132,7.189507 H 2.042876 Z"
     style="shape-padding:0;fill:#006fc5;fill-opacity:1;stroke:none;" />
</svg>
