<?xml version="1.0" encoding="UTF-8"?>
<svg width="125" height="90" version="1.1" viewBox="0 0 33.073 23.812" xmlns="http://www.w3.org/2000/svg">
  <g transform="translate(-85.539 -106.66)">
    <g transform="matrix(.6896 0 0 .6896 30.316 -28.501)" stroke-width="1.4501">
      <g>
        <path d="m92.398 220.39c0.89713 1.3712 1.7748 2.72 2.7089 4.1752 0.15076 0.22192 0.34175 0.29026 0.55341 0.27974l6.8529 0.0118c0.42674-0.0584 0.5529-0.32527 0.5146-0.70624-0.72848-4.3844-3.4316-6.7883-4.4755-9.8417-0.06386-0.28963-0.01687-0.59175 0.34249-0.6261 2.7797 0.0217 5.0301-0.31778 4.9896-2.2502-0.0423-2.7312-4.3903-4.2354-7.692-5.254-0.24105-0.0742-0.28269-0.25104-0.30051-0.38487-0.27291-3.3663-1.6715-4.6821-3.8828-4.7185-2.2113 0.0364-3.6099 1.3522-3.8828 4.7185-0.01783 0.13383-0.05945 0.31069-0.30051 0.38487-3.3017 1.0186-7.6497 2.5228-7.692 5.254-0.04059 1.9325 2.2099 2.272 4.9896 2.2502 0.35935 0.0344 0.40636 0.33647 0.34249 0.6261-1.0438 3.0534-3.747 5.4572-4.4755 9.8417-0.03832 0.38097 0.08785 0.64786 0.51459 0.70624l6.8529-0.0118c0.21165 0.0105 0.40265-0.0578 0.5534-0.27974 0.9341-1.4552 1.8117-2.8041 2.7089-4.1752 0.11538-0.15814 0.29795-0.16357 0.38893-0.16328 0.06877 1e-3 0.27356 5e-3 0.38894 0.16328z" fill="#e53832" stop-color="#000000" style="-inkscape-stroke:none;font-variation-settings:normal;paint-order:markers stroke fill"/>
        <path d="m92.012 201.08c-2.2094 0.0363-3.6068 1.3509-3.8795 4.7143-0.01779 0.13372-0.05938 0.31054-0.30022 0.38466-3.2989 1.0177-7.6432 2.5206-7.6854 5.2494-0.04059 1.9308 2.2079 2.2701 4.9852 2.2484 0.35905 0.0343 0.40616 0.33624 0.34236 0.62563-0.80808 2.3637-2.6109 4.3385-3.7207 7.1454a18.209 17.741 0 0 0 17.526-14.209c-1.0278-0.40938-2.104-0.75637-3.0876-1.0598-0.24085-0.0741-0.28258-0.25094-0.30038-0.38466-0.27268-3.3634-1.6701-4.678-3.8795-4.7143z" fill="#f53d36" stop-color="#000000" style="-inkscape-stroke:none;font-variation-settings:normal;paint-order:markers stroke fill"/>
      </g>
      <g>
        <path d="m116.5 220.39c0.89713 1.3712 1.7748 2.72 2.7089 4.1752 0.15075 0.22192 0.34175 0.29026 0.5534 0.27974l6.8529 0.0118c0.42674-0.0584 0.55289-0.32527 0.51459-0.70624-0.72848-4.3844-3.4316-6.7883-4.4755-9.8417-0.0639-0.28963-0.0169-0.59175 0.3425-0.6261 2.7797 0.0217 5.0301-0.31778 4.9896-2.2502-0.0423-2.7312-4.3903-4.2354-7.692-5.254-0.24106-0.0742-0.28269-0.25104-0.30051-0.38487-0.27291-3.3663-1.6715-4.6821-3.8828-4.7185-2.2113 0.0364-3.6099 1.3522-3.8828 4.7185-0.0178 0.13383-0.0594 0.31069-0.3005 0.38487-3.3017 1.0186-7.6497 2.5228-7.692 5.254-0.0406 1.9325 2.2099 2.272 4.9896 2.2502 0.35935 0.0344 0.40635 0.33647 0.34249 0.6261-1.0438 3.0534-3.747 5.4572-4.4755 9.8417-0.0383 0.38097 0.0879 0.64786 0.5146 0.70624l6.8529-0.0118c0.21165 0.0105 0.40265-0.0578 0.5534-0.27974 0.93411-1.4552 1.8118-2.8041 2.7089-4.1752 0.11538-0.15814 0.29795-0.16357 0.38893-0.16328 0.0688 1e-3 0.27356 5e-3 0.38894 0.16328z" fill="#ffd42a" stop-color="#000000" style="-inkscape-stroke:none;font-variation-settings:normal;paint-order:markers stroke fill"/>
        <path d="m116.1 201.08c-2.2094 0.0363-3.6068 1.3509-3.8795 4.7143-0.0178 0.13372-0.0594 0.31054-0.30022 0.38466-3.2989 1.0177-7.6432 2.5206-7.6854 5.2494-0.0406 1.9308 2.2079 2.2701 4.9852 2.2484 0.35905 0.0343 0.40617 0.33624 0.34236 0.62563-0.80807 2.3637-2.6109 4.3385-3.7207 7.1454a18.209 17.741 0 0 0 17.526-14.209c-1.0278-0.40938-2.104-0.75637-3.0876-1.0598-0.24085-0.0741-0.28258-0.25094-0.30038-0.38466-0.27268-3.3634-1.6701-4.678-3.8795-4.7143z" fill="#ffde59" stop-color="#000000" style="-inkscape-stroke:none;font-variation-settings:normal;paint-order:markers stroke fill"/>
      </g>
      <path d="m97.602 202.99c-4.2874 1.4214-10.651 3.4845-10.651 8.3707 0.07667 3.5356 3.6295 4.289 6.5615 4.3791-2.1644 3.85-4.8924 7.5666-5.4523 12.529 0.06183 1.4808 1.1983 2.2554 2.2852 2.2554l8.236-0.0245c0.77571-0.0146 2.3935-0.46489 2.9065-1.155l2.7112-4.1821 2.7979 4.3119c0.54213 0.67407 1.1881 1.0391 1.9285 1.0391l9.3172 3e-3c0.992-0.10803 2.0492-0.88153 2.0921-2.2937-0.45252-4.8156-3.6111-9.0642-5.4443-12.485 3.3916-0.071 6.1309-0.87285 6.5487-4.3045 0.0193-5.115-6.8012-7.2421-10.643-8.443-0.46431-4.3617-2.6615-6.9909-6.5997-6.9966-3.804 4e-3 -6.159 2.5292-6.5947 6.996z" color="#000000" fill="#fff" stroke-width="1.4501" style="-inkscape-stroke:none;paint-order:markers stroke fill"/>
      <g>
        <path d="m104.71 223.05c1.1837 1.8091 2.3416 3.5887 3.574 5.5087 0.1989 0.29279 0.45089 0.38296 0.73014 0.36908l9.0415 0.0156c0.56303-0.077 0.72947-0.42915 0.67894-0.93179-0.96114-5.7847-4.5276-8.9563-5.9048-12.985-0.0843-0.38213-0.0222-0.78073 0.45187-0.82606 3.6674 0.0287 6.6366-0.41927 6.5831-2.9689-0.0558-3.6034-5.7924-5.588-10.149-6.9319-0.31804-0.0979-0.37298-0.33121-0.39649-0.50778-0.36006-4.4414-2.2053-6.1774-5.1229-6.2254-2.9175 0.048-4.7628 1.784-5.1229 6.2254-0.02351 0.17657-0.07844 0.40991-0.39649 0.50778-4.3562 1.3439-10.093 3.3285-10.149 6.9319-0.05352 2.5496 2.9157 2.9976 6.5831 2.9689 0.47412 0.0453 0.53613 0.44393 0.45188 0.82606-1.3772 4.0285-4.9437 7.2001-5.9048 12.985-0.05053 0.50264 0.11591 0.85476 0.67894 0.93179l9.0415-0.0156c0.27925 0.0139 0.53124-0.0763 0.73015-0.36908 1.2324-1.92 2.3904-3.6996 3.574-5.5087 0.15223-0.20865 0.39311-0.21582 0.51315-0.21543 0.0907 2e-3 0.36092 7e-3 0.51315 0.21543z" fill="#00baa7" style="paint-order:markers stroke fill"/>
        <path d="m104.2 197.57c-2.9175 0.048-4.7628 1.7839-5.1229 6.2252-0.02351 0.17658-0.0784 0.41007-0.39644 0.50794-4.3562 1.3439-10.093 3.3284-10.149 6.9318-0.05352 2.5496 2.9156 2.9977 6.583 2.969 0.47412 0.0453 0.53634 0.444 0.45208 0.82614-1.0671 3.1213-3.4476 5.729-4.9131 9.4354a24.045 23.426 0 0 0 23.143-18.763c-1.3572-0.54059-2.7783-0.99878-4.0772-1.3995-0.31804-0.0979-0.37315-0.33136-0.39666-0.50794-0.36007-4.4414-2.2053-6.1772-5.1229-6.2252z" fill="#00c2b2" stop-color="#000000" style="-inkscape-stroke:none;font-variation-settings:normal;paint-order:markers stroke fill"/>
      </g>
    </g>
  </g>
</svg>
