<?xml version="1.0" encoding="UTF-8" standalone="no"?>
<!-- Created with Inkscape (http://www.inkscape.org/) -->

<svg
   width="57.171177"
   height="53.611485"
   viewBox="0 0 15.12654 14.184706"
   version="1.1"
   id="svg880"
   inkscape:version="1.3.2 (091e20e, 2023-11-25)"
   sodipodi:docname="marcador.svg"
   xmlns:inkscape="http://www.inkscape.org/namespaces/inkscape"
   xmlns:sodipodi="http://sodipodi.sourceforge.net/DTD/sodipodi-0.dtd"
   xmlns:xlink="http://www.w3.org/1999/xlink"
   xmlns="http://www.w3.org/2000/svg"
   xmlns:svg="http://www.w3.org/2000/svg"
   xmlns:rdf="http://www.w3.org/1999/02/22-rdf-syntax-ns#"
   xmlns:cc="http://creativecommons.org/ns#"
   xmlns:dc="http://purl.org/dc/elements/1.1/">
  <defs
     id="defs874">
    <linearGradient
       gradientTransform="translate(34.780002,53.351702)"
       inkscape:collect="always"
       xlink:href="#linearGradient909"
       id="linearGradient911"
       x1="80.137794"
       y1="28.701057"
       x2="80.137794"
       y2="42.801563"
       gradientUnits="userSpaceOnUse" />
    <linearGradient
       inkscape:collect="always"
       id="linearGradient909">
      <stop
         style="stop-color:#000000;stop-opacity:0.14572865"
         offset="0"
         id="stop905" />
      <stop
         style="stop-color:#000000;stop-opacity:0.31658292"
         offset="1"
         id="stop907" />
    </linearGradient>
    <linearGradient
       inkscape:collect="always"
       xlink:href="#linearGradient887"
       id="linearGradient45"
       gradientUnits="userSpaceOnUse"
       gradientTransform="matrix(0.96302982,0,0,0.96302982,74.434487,63.337532)"
       x1="42.188496"
       y1="30.772823"
       x2="42.188496"
       y2="20.108768" />
    <linearGradient
       id="linearGradient887"
       inkscape:collect="always">
      <stop
         id="stop883"
         offset="0"
         style="stop-color:#ffffff;stop-opacity:0.37688443" />
      <stop
         id="stop885"
         offset="1"
         style="stop-color:#ffffff;stop-opacity:0" />
    </linearGradient>
    <linearGradient
       inkscape:collect="always"
       xlink:href="#linearGradient898"
       id="linearGradient43"
       gradientUnits="userSpaceOnUse"
       gradientTransform="matrix(0.96704985,0,0,0.94919465,74.264662,63.781545)"
       x1="35.079124"
       y1="32.550167"
       x2="48.549511"
       y2="32.550167" />
    <linearGradient
       inkscape:collect="always"
       id="linearGradient898">
      <stop
         style="stop-color:#000000;stop-opacity:0.19597989"
         offset="0"
         id="stop892" />
      <stop
         id="stop894"
         offset="0.5138889"
         style="stop-color:#000305;stop-opacity:0" />
      <stop
         style="stop-color:#000000;stop-opacity:0.19597989"
         offset="1"
         id="stop896" />
    </linearGradient>
  </defs>
  <sodipodi:namedview
     id="base"
     pagecolor="#ffffff"
     bordercolor="#666666"
     borderopacity="1.0"
     inkscape:pageopacity="0.0"
     inkscape:pageshadow="2"
     inkscape:zoom="1"
     inkscape:cx="25"
     inkscape:cy="30"
     inkscape:document-units="px"
     inkscape:current-layer="layer1"
     showgrid="false"
     fit-margin-top="0"
     fit-margin-left="0"
     fit-margin-right="0"
     fit-margin-bottom="0"
     inkscape:window-width="1858"
     inkscape:window-height="1016"
     inkscape:window-x="1982"
     inkscape:window-y="27"
     inkscape:window-maximized="1"
     inkscape:showpageshadow="2"
     inkscape:pagecheckerboard="0"
     inkscape:deskcolor="#d1d1d1" />
  <metadata
     id="metadata877">
    <rdf:RDF>
      <cc:Work
         rdf:about="">
        <dc:format>image/svg+xml</dc:format>
        <dc:type
           rdf:resource="http://purl.org/dc/dcmitype/StillImage" />
      </cc:Work>
    </rdf:RDF>
  </metadata>
  <g
     inkscape:label="Camada 1"
     inkscape:groupmode="layer"
     id="layer1"
     transform="translate(-107.34165,-82.020743)">
    <path
       style="opacity:1;vector-effect:none;fill:#cccccc;fill-opacity:1;stroke:none;stroke-width:0.529167;stroke-linecap:butt;stroke-linejoin:miter;stroke-miterlimit:4;stroke-dasharray:none;stroke-dashoffset:0;stroke-opacity:1;paint-order:markers stroke fill"
       d="m 114.92704,82.020753 c -2.06316,0 -3.93572,0.629952 -5.30406,1.663981 -1.30038,0.982675 -2.12438,2.348333 -2.20555,3.865398 h -0.0279 l -0.002,0.226859 c -1e-5,0.0023 -0.001,0.0044 -0.001,0.0067 v 0.0062 l 5.2e-4,0.0062 c 5e-5,0.0012 -6e-5,0.0024 0,0.0036 l -0.0253,2.628779 v 10e-4 c 0,1.61303 0.86769,3.065343 2.23603,4.099491 1.36835,1.034145 3.24133,1.663981 5.30459,1.663981 2.06325,0 3.93623,-0.629836 5.30458,-1.663981 1.36835,-1.034148 2.23604,-2.486461 2.23604,-4.099491 l 0.002,-2.289783 c 0.012,-0.116422 0.0205,-0.23304 0.0232,-0.349848 v -0.0031 -0.0031 c -1.7e-4,-1.612901 -0.86826,-3.064887 -2.2366,-4.098915 -1.36834,-1.034029 -3.2409,-1.663981 -5.30407,-1.663981 z"
       id="path27"
       inkscape:connector-curvature="0" />
    <path
       style="opacity:1;vector-effect:none;fill:url(#linearGradient43);fill-opacity:1;stroke:none;stroke-width:0.529167;stroke-linecap:butt;stroke-linejoin:miter;stroke-miterlimit:4;stroke-dasharray:none;stroke-dashoffset:0;stroke-opacity:1;paint-order:markers stroke fill"
       d="m 107.89049,87.954802 -0.0245,2.482343 c 0,2.882559 3.15027,5.219425 7.03631,5.219425 3.88604,0 7.03632,-2.336868 7.03632,-5.219425 l 0.002,-2.476682 h -0.008 a 7.0091414,5.199194 0 0 1 -7.00652,5.161402 7.0091414,5.199194 0 0 1 -7.00796,-5.167063 z"
       id="path39"
       inkscape:connector-curvature="0" />
    <ellipse
       style="opacity:1;vector-effect:none;fill:url(#linearGradient45);fill-opacity:1;stroke:none;stroke-width:0.529167;stroke-linecap:butt;stroke-linejoin:miter;stroke-miterlimit:4;stroke-dasharray:none;stroke-dashoffset:0;stroke-opacity:1;paint-order:markers stroke fill"
       id="ellipse41"
       cx="114.92691"
       cy="87.833519"
       rx="7.0070453"
       ry="5.2954116" />
    <path
       style="color:#000000;font-style:normal;font-variant:normal;font-weight:normal;font-stretch:normal;font-size:medium;line-height:normal;font-family:sans-serif;font-variant-ligatures:normal;font-variant-position:normal;font-variant-caps:normal;font-variant-numeric:normal;font-variant-alternates:normal;font-feature-settings:normal;text-indent:0;text-align:start;text-decoration:none;text-decoration-line:none;text-decoration-style:solid;text-decoration-color:#000000;letter-spacing:normal;word-spacing:normal;text-transform:none;writing-mode:lr-tb;direction:ltr;text-orientation:mixed;dominant-baseline:auto;baseline-shift:baseline;text-anchor:start;white-space:normal;shape-padding:0;clip-rule:nonzero;display:inline;overflow:visible;visibility:visible;opacity:1;isolation:auto;mix-blend-mode:normal;color-interpolation:sRGB;color-interpolation-filters:linearRGB;solid-color:#000000;solid-opacity:1;vector-effect:none;fill:url(#linearGradient911);fill-opacity:1;fill-rule:nonzero;stroke:none;stroke-width:0.529167;stroke-linecap:butt;stroke-linejoin:miter;stroke-miterlimit:4;stroke-dasharray:none;stroke-dashoffset:0;stroke-opacity:1;paint-order:markers stroke fill;color-rendering:auto;image-rendering:auto;shape-rendering:auto;text-rendering:auto;enable-background:accumulate"
       d="m 114.91774,82.02592 c -2.06542,0 -3.94047,0.622242 -5.31027,1.643312 -1.31848,0.982821 -2.17026,2.348775 -2.23242,3.870047 h -0.006 l -0.0274,2.884577 v 0.0021 c 0,1.617451 0.87014,3.073929 2.24224,4.11086 1.3721,1.036934 3.25067,1.668632 5.31957,1.668632 2.06891,0 3.9449,-0.631698 5.31699,-1.668632 1.3721,-1.036931 2.24276,-2.493409 2.24276,-4.11086 l 0.002,-2.642733 c 2.6e-4,-0.02215 0.002,-0.04395 0.002,-0.06615 0,-0.02151 -0.002,-0.04263 -0.002,-0.06408 v -0.107981 h -0.004 c -0.0603,-1.523548 -0.91282,-2.891677 -2.23294,-3.875723 -1.3698,-1.021069 -3.24484,-1.643311 -5.31027,-1.643311 z m 0,0.522965 c 1.95725,0 3.72555,0.594932 4.99195,1.538925 1.2144,0.905243 1.96207,2.119263 2.02158,3.457155 4e-5,7.94e-4 -4e-5,0.0016 0,0.0026 v 0.338998 l 0.001,1.934249 -5.3e-4,0.605132 c 0,1.42772 -0.76235,2.728968 -2.03088,3.68763 -1.26853,0.958659 -3.0376,1.561145 -4.99815,1.561145 -1.96055,0 -3.73169,-0.602486 -5.00021,-1.561145 -1.26795,-0.958218 -2.02967,-2.259111 -2.03037,-3.68607 v -0.0016 l 0.006,-0.652675 0.0202,-2.056204 c 0,-1.405879 0.76346,-2.685243 2.02985,-3.629236 1.26639,-0.944004 3.03211,-1.538935 4.98936,-1.538935 z"
       id="path867"
       inkscape:connector-curvature="0"
       sodipodi:nodetypes="sccccscscccsscccsscccccccscccccsscc" />
    <text
       xml:space="preserve"
       style="font-style:normal;font-variant:normal;font-weight:normal;font-stretch:normal;font-size:5.61804px;line-height:1.25;font-family:PoetsenOne;-inkscape-font-specification:'PoetsenOne, Normal';font-variant-ligatures:normal;font-variant-caps:normal;font-variant-numeric:normal;font-variant-east-asian:normal;text-align:center;text-anchor:middle;fill:#000000;fill-opacity:0.350647;stroke:none;stroke-width:0.264583"
       x="114.88806"
       y="89.663063"
       id="text1"><tspan
         sodipodi:role="line"
         id="tspan1"
         style="font-style:normal;font-variant:normal;font-weight:normal;font-stretch:normal;font-size:5.61804px;font-family:PoetsenOne;-inkscape-font-specification:'PoetsenOne, Normal';font-variant-ligatures:normal;font-variant-caps:normal;font-variant-numeric:normal;font-variant-east-asian:normal;text-align:center;text-anchor:middle;fill:#000000;fill-opacity:0.350647;stroke-width:0.264583"
         x="114.88806"
         y="89.663063">000</tspan></text>
  </g>
</svg>
