<?xml version="1.0" encoding="UTF-8" standalone="no"?>
<!-- Created with Inkscape (http://www.inkscape.org/) -->

<svg
   width="48"
   height="48"
   viewBox="0 0 12.7 12.7"
   version="1.1"
   id="svg1"
   xml:space="preserve"
   inkscape:version="1.3.2 (091e20e, 2023-11-25)"
   sodipodi:docname="meeple.svg"
   xmlns:inkscape="http://www.inkscape.org/namespaces/inkscape"
   xmlns:sodipodi="http://sodipodi.sourceforge.net/DTD/sodipodi-0.dtd"
   xmlns:xlink="http://www.w3.org/1999/xlink"
   xmlns="http://www.w3.org/2000/svg"
   xmlns:svg="http://www.w3.org/2000/svg"><sodipodi:namedview
     id="namedview1"
     pagecolor="#ffffff"
     bordercolor="#666666"
     borderopacity="1.0"
     inkscape:showpageshadow="2"
     inkscape:pageopacity="0.0"
     inkscape:pagecheckerboard="0"
     inkscape:deskcolor="#d1d1d1"
     inkscape:document-units="px"
     inkscape:zoom="4"
     inkscape:cx="47"
     inkscape:cy="38.25"
     inkscape:window-width="1858"
     inkscape:window-height="1016"
     inkscape:window-x="1982"
     inkscape:window-y="27"
     inkscape:window-maximized="1"
     inkscape:current-layer="layer1" /><defs
     id="defs1"><linearGradient
       id="linearGradient20"
       inkscape:collect="always"><stop
         style="stop-color:#ffffff;stop-opacity:0.29519919;"
         offset="0"
         id="stop20" /><stop
         style="stop-color:#ffffff;stop-opacity:0;"
         offset="1"
         id="stop21" /></linearGradient><linearGradient
       inkscape:collect="always"
       xlink:href="#linearGradient20"
       id="linearGradient21"
       x1="16.906113"
       y1="11.070127"
       x2="16.906113"
       y2="0.041784924"
       gradientUnits="userSpaceOnUse"
       gradientTransform="translate(-10.583333)" /></defs><g
     inkscape:label="Camada 1"
     inkscape:groupmode="layer"
     id="layer1"><path
       id="path12"
       style="stroke-width:1.00001;paint-order:markers stroke fill;fill:#808080;fill-opacity:1"
       d="M 6.35 0 C 5.3196895 0.018322532 4.6679665 0.62979089 4.5408081 2.1983154 C 4.5329555 2.2606121 4.5130561 2.3433432 4.400765 2.3776326 C 2.8623391 2.8522152 0.83663594 3.5534989 0.81700439 4.826062 C 0.81645129 4.8498458 0.81969489 4.8709995 0.82062174 4.8937581 L 0.81700439 6.4368164 C 0.79879563 7.2198018 1.5914181 7.4412869 2.6499674 7.47913 C 2.1005701 8.4004198 1.4468311 9.362237 1.2159465 10.751799 C 1.2136561 10.774015 1.2125933 10.795421 1.2128459 10.815877 C 1.2128481 10.816057 1.2128434 10.816215 1.2128459 10.816394 C 1.2115927 10.824342 1.209717 10.832693 1.2097453 10.839648 L 1.2159465 12.36307 C 1.1976235 12.540798 1.2567919 12.664536 1.4557251 12.691732 L 4.6488118 12.686564 C 4.7474918 12.691764 4.8365281 12.659731 4.9066772 12.55634 C 5.3418951 11.878295 5.7511143 11.249607 6.1691325 10.610722 C 6.2227914 10.537172 6.2865864 10.517251 6.3562012 10.518221 C 6.4220841 10.519142 6.4787596 10.541372 6.5308675 10.610722 L 7.7933228 12.55634 C 7.8634717 12.659731 7.9525082 12.691537 8.0511882 12.686564 L 11.244275 12.691732 C 11.443206 12.664512 11.501853 12.540049 11.484054 12.362553 L 11.48457 10.842232 C 11.486753 10.813794 11.487282 10.783998 11.484054 10.751799 C 11.253187 9.3622608 10.599428 8.4004164 10.050033 7.47913 C 11.10819 7.4414074 11.899406 7.2196876 11.882996 6.4368164 L 11.880929 4.8637858 C 11.881111 4.850855 11.883273 4.8393123 11.882996 4.826062 C 11.862056 3.5534989 9.8375271 2.8522152 8.299235 2.3776326 C 8.186944 2.3433433 8.1675679 2.2606121 8.1591919 2.1983154 C 8.032242 0.62979089 7.3803652 0.016935253 6.35 0 z " /><path
       style="fill:url(#linearGradient21);fill-opacity:1;stroke-width:1.00001;paint-order:markers stroke fill"
       d="m 6.3500003,0 c -1.030311,0.01831999 -1.6820337,0.62979087 -1.8091927,2.1983154 -0.0078,0.062297 -0.02775,0.1450278 -0.140043,0.1793172 -1.538426,0.4745826 -3.56412897,1.1758663 -3.58375997,2.4484294 -0.02094,0.9004299 1.02971797,1.0586707 2.32492197,1.0485148 0.167259,0.013088 0.189523,0.1564938 0.159681,0.2914551 -0.486363,1.4226768 -1.74622,2.5428665 -2.085661,4.5857671 -0.01832,0.177728 0.04085,0.301982 0.239778,0.329178 l 3.193087,-0.0052 c 0.09868,0.0052 0.1877167,-0.02735 0.2578657,-0.130742 0.435218,-0.678044 0.844437,-1.3062147 1.262455,-1.9451006 0.05366,-0.073552 0.117454,-0.093475 0.187069,-0.092501 0.06588,9.212e-4 0.122558,0.02315 0.174666,0.092501 l 1.262455,1.9451006 c 0.07015,0.103392 0.159186,0.135198 0.257866,0.130225 l 3.1930867,0.0057 c 0.198931,-0.02722 0.257578,-0.151683 0.239779,-0.329178 C 11.144639,8.7089334 9.8847543,7.5886563 9.3983923,6.1660319 9.3685533,6.0309685 9.3905553,5.890596 9.5580733,5.8745768 10.853248,5.8850468 11.901868,5.726361 11.882996,4.826062 11.862056,3.5534989 9.8375273,2.8522152 8.2992353,2.3776326 8.1869443,2.3433433 8.1675683,2.2606121 8.1591923,2.1983154 8.0322423,0.62979087 7.3803653,0.01693499 6.3500003,0 Z"
       id="path19" /><path
       id="path16"
       style="stroke-width:1.00001;paint-order:markers stroke fill;fill:#000000;fill-opacity:0.30000001"
       d="M 7.3416707 0.28938802 C 7.3870397 0.32154858 7.4309816 0.35684965 7.4729289 0.39480794 C 7.4308989 0.35676242 7.3871372 0.32161105 7.3416707 0.28938802 z M 4.8973755 0.81855469 C 4.8037135 0.98757599 4.7266157 1.1853572 4.6668986 1.414384 C 4.7266405 1.1853774 4.8036886 0.98755991 4.8973755 0.81855469 z M 4.400765 2.3776326 C 3.9200074 2.5259396 3.3916511 2.6964645 2.8918132 2.8995646 C 3.3916728 2.6965165 3.9200069 2.5259397 4.400765 2.3776326 z M 2.8918132 2.8995646 C 2.691878 2.9808047 2.496397 3.0671346 2.3104533 3.1594971 C 2.4964068 3.0671584 2.6918693 2.9807839 2.8918132 2.8995646 z M 8.299235 2.3776326 C 8.7799513 2.5259397 9.3079481 2.6965165 9.8076701 2.8995646 C 9.3079696 2.6964645 8.7799508 2.5259396 8.299235 2.3776326 z M 9.8076701 2.8995646 C 10.007559 2.9807839 10.203123 3.0671584 10.38903 3.1594971 C 10.203132 3.0671346 10.00755 2.9808047 9.8076701 2.8995646 z M 11.880929 4.8637858 C 11.86874 5.7294464 10.834186 5.8848927 9.5580729 5.8745768 C 9.390555 5.890596 9.3685538 6.0309685 9.3983927 6.1660319 C 9.5539356 6.6210005 9.7917199 7.0459633 10.050033 7.47913 C 11.108188 7.4414075 11.899406 7.2196868 11.882996 6.4368164 L 11.880929 4.8637858 z M 0.82062174 4.8958252 L 0.81700439 6.4368164 C 0.79879565 7.219801 1.5914192 7.441287 2.6499674 7.47913 C 2.9082809 7.0459616 3.1460639 6.6210173 3.3016073 6.1660319 C 3.3314495 6.0310706 3.3091857 5.8876648 3.1419271 5.8745768 C 1.8819756 5.8844563 0.85639836 5.732855 0.82062174 4.8958252 z M 2.6484172 7.4817139 C 2.4144013 7.874033 2.1631582 8.2761259 1.9321818 8.7131632 C 2.1640129 8.2752309 2.4140646 7.8745916 2.6484172 7.4817139 z M 10.051583 7.4817139 C 10.285935 7.8745902 10.53599 8.2752297 10.767818 8.7131632 C 10.536839 8.2761226 10.285598 7.8740315 10.051583 7.4817139 z M 1.8799886 8.8128988 C 1.843695 8.8835682 1.807876 8.9550666 1.7730184 9.0278727 C 1.8078859 8.9551771 1.8436886 8.8834646 1.8799886 8.8128988 z M 10.821045 8.8144491 C 10.856232 8.8828867 10.890555 8.9522668 10.924398 9.0227051 C 10.890599 8.9522386 10.856188 8.882913 10.821045 8.8144491 z M 6.3562012 8.9074666 C 6.2865864 8.9064926 6.2227914 8.9264155 6.1691325 8.9999674 C 5.7511143 9.6388533 5.3418951 10.267024 4.9066772 10.945068 C 4.8365281 11.04846 4.7474918 11.08101 4.6488118 11.07581 L 1.4557251 11.080977 C 1.2818769 11.057211 1.2147749 10.959296 1.2128459 10.816394 C 1.2115927 10.824342 1.209717 10.832693 1.2097453 10.839648 L 1.2159465 12.36307 C 1.1976235 12.540797 1.2567921 12.664536 1.4557251 12.691732 L 4.6488118 12.686564 C 4.7474918 12.691764 4.8365282 12.65973 4.9066772 12.55634 C 5.3418947 11.878295 5.7511147 11.249606 6.1691325 10.610722 C 6.2227913 10.537172 6.2865864 10.517251 6.3562012 10.518221 C 6.422084 10.519142 6.4787597 10.541372 6.5308675 10.610722 L 7.7933228 12.55634 C 7.8634716 12.65973 7.9525082 12.691537 8.0511882 12.686564 L 11.244275 12.691732 C 11.443206 12.664512 11.501853 12.540049 11.484054 12.362553 L 11.48457 10.842232 C 11.47472 10.970555 11.407118 11.058695 11.244275 11.080977 L 8.0511882 11.075293 C 7.9525082 11.080266 7.8634717 11.04846 7.7933228 10.945068 L 6.5308675 8.9999674 C 6.4787596 8.9306165 6.4220841 8.9083878 6.3562012 8.9074666 z M 1.6924032 9.2035726 C 1.6242697 9.355494 1.5591947 9.5107401 1.5001668 9.6738281 C 1.5592398 9.5109413 1.624215 9.3553331 1.6924032 9.2035726 z M 11.011731 9.2139079 C 11.078194 9.3624402 11.142106 9.5146488 11.199833 9.6738281 C 11.142126 9.5143874 11.078172 9.3626548 11.011731 9.2139079 z M 1.4872477 9.7089681 C 1.4504978 9.8123914 1.4155219 9.9176732 1.3833781 10.026261 C 1.415582 9.9176504 1.4504135 9.8124205 1.4872477 9.7089681 z M 1.3833781 10.026261 C 1.3522543 10.131403 1.3242723 10.239814 1.298112 10.350273 C 1.3242812 10.239911 1.3522258 10.131326 1.3833781 10.026261 z M 11.212752 9.7089681 C 11.249586 9.81242 11.284419 9.9176513 11.316622 10.026261 C 11.284479 9.9176739 11.249502 9.8123912 11.212752 9.7089681 z M 11.316622 10.026261 C 11.346329 10.126455 11.373082 10.230285 11.398271 10.335286 C 11.373066 10.230059 11.346339 10.126653 11.316622 10.026261 z M 1.2851929 10.405566 C 1.2596054 10.518341 1.2356833 10.633014 1.2159465 10.751799 C 1.2356619 10.633142 1.2596013 10.518236 1.2851929 10.405566 z M 11.417908 10.419519 C 11.442254 10.527878 11.465132 10.637916 11.484054 10.751799 C 11.465135 10.63793 11.442216 10.527856 11.417908 10.419519 z " /><path
       id="path1"
       style="fill:#000000;fill-opacity:0.15461119;stroke-width:1.00001;paint-order:markers stroke fill"
       d="M 6.35 0 C 5.3196895 0.018319985 4.6679665 0.62979087 4.5408081 2.1983154 C 4.5329581 2.2606124 4.5130557 2.3433432 4.400765 2.3776326 C 2.8623391 2.8522152 0.83663594 3.5534989 0.81700439 4.826062 C 0.79606432 5.7264919 1.8467226 5.8847327 3.1419271 5.8745768 C 3.3091857 5.8876648 3.3314495 6.0310706 3.3016073 6.1660319 C 2.8152446 7.5887087 1.5553875 8.7088984 1.2159465 10.751799 C 1.1976235 10.929527 1.2567919 11.053781 1.4557251 11.080977 L 4.6488118 11.07581 C 4.7474918 11.08101 4.8365281 11.04846 4.9066772 10.945068 C 5.3418951 10.267024 5.7511143 9.6388533 6.1691325 8.9999674 C 6.2227914 8.9264155 6.2865864 8.9064926 6.3562012 8.9074666 C 6.4220841 8.9083878 6.4787596 8.9306165 6.5308675 8.9999674 L 7.7933228 10.945068 C 7.8634717 11.04846 7.9525082 11.080266 8.0511882 11.075293 L 11.244275 11.080977 C 11.443206 11.053757 11.501853 10.929294 11.484054 10.751799 C 11.144639 8.7089334 9.8847541 7.5886563 9.3983927 6.1660319 C 9.3685538 6.0309685 9.390555 5.890596 9.5580729 5.8745768 C 10.853248 5.8850468 11.901868 5.726361 11.882996 4.826062 C 11.862056 3.5534989 9.8375271 2.8522152 8.299235 2.3776326 C 8.186944 2.3433433 8.1675679 2.2606121 8.1591919 2.1983154 C 8.032242 0.62979087 7.3803652 0.016934986 6.35 0 z M 6.3515503 0.26561686 C 6.8112293 0.27450585 7.1410442 0.40200854 7.3943807 0.69143066 C 7.6491031 0.98243617 7.8338477 1.4698079 7.8946086 2.2205363 L 7.8966756 2.2267375 L 7.8966756 2.2344889 C 7.9023956 2.2770049 7.9140736 2.3519868 7.9648885 2.4355103 C 8.0157035 2.5190332 8.1138403 2.5975891 8.2227539 2.6308472 C 8.9876874 2.8668704 9.8649556 3.1590901 10.53114 3.5331177 C 11.197813 3.9074198 11.610754 4.333379 11.618929 4.8301961 L 11.618929 4.8322632 C 11.622529 5.0058499 11.58162 5.1107903 11.505758 5.2033 C 11.429897 5.2958147 11.305606 5.3789362 11.124902 5.4435954 C 10.763495 5.5729135 10.196866 5.6146197 9.5606567 5.6094767 L 9.5467041 5.6094767 L 9.5332682 5.6115438 C 9.3775475 5.6264378 9.2160898 5.7398996 9.1601644 5.8730265 C 9.1042388 6.0061534 9.1184805 6.1230846 9.1405273 6.222876 L 9.1425944 6.2383789 L 9.1482788 6.2518148 C 9.6659401 7.7659929 10.897423 8.8405366 11.222571 10.79314 C 11.222684 10.793817 11.222459 10.794507 11.222571 10.795207 C 11.221756 10.806087 11.223348 10.818274 11.224638 10.816394 L 8.044987 10.81071 L 8.0372355 10.81071 C 8.0065085 10.81221 8.0280113 10.824184 8.0134644 10.798824 C 8.0119944 10.796224 8.0142951 10.800357 8.0119141 10.796757 L 6.7479085 8.847522 C 6.6566473 8.7260615 6.4823535 8.6440871 6.3593018 8.6423665 C 6.2370567 8.6406562 6.0545178 8.707756 5.9551921 8.8439046 L 5.9510579 8.849589 L 5.9474406 8.8552734 C 5.5304574 9.4925877 5.1218552 10.120217 4.6875692 10.796757 C 4.6614812 10.835207 4.6953287 10.81246 4.6622477 10.81071 L 4.6560465 10.81071 L 1.4748454 10.816394 C 1.4760754 10.818294 1.4771157 10.807287 1.4763957 10.795207 L 1.4763957 10.79314 C 1.8015723 8.8405033 3.0350929 7.766046 3.5527547 6.2518148 L 3.5568888 6.2383789 L 3.5605062 6.222876 C 3.5826869 6.1225302 3.5950313 6.0063826 3.5393188 5.8730265 C 3.4836064 5.7396704 3.3198823 5.6238913 3.1620809 5.6115438 L 3.1501953 5.6094767 L 3.1403768 5.6094767 C 2.5041057 5.6144658 1.9357381 5.572883 1.5740641 5.4435954 C 1.3932272 5.3789515 1.2688912 5.2956548 1.1932088 5.2033 C 1.1175263 5.1109452 1.0780693 5.0057809 1.0821045 4.8322632 L 1.0821045 4.8301961 C 1.0897667 4.333514 1.5010169 3.9074176 2.1678263 3.5331177 C 2.8346357 3.1588179 3.7128663 2.8669663 4.4782796 2.6308472 C 4.5870833 2.5976226 4.6850977 2.5212081 4.736145 2.4375773 C 4.787193 2.3539464 4.7972316 2.2766593 4.8028076 2.2324219 L 4.8048747 2.2267375 L 4.8048747 2.2205363 C 4.8657396 1.4697979 5.0519618 0.98228869 5.3066528 0.69143066 C 5.5603648 0.40169081 5.8905433 0.27475574 6.3515503 0.26561686 z " /><path
       style="color:#000000;fill:#800000;-inkscape-stroke:none;paint-order:markers fill stroke"
       d="m 11.208984,10.818359 h 0.01563 c 6.33e-4,-10e-4 -0.0016,0.01018 0,0.0078 0.0098,-0.0149 0.03369,-0.01456 -0.01563,-0.0078 z"
       id="path11" /><path
       style="color:#000000;fill:#800000;-inkscape-stroke:none;paint-order:markers fill stroke"
       d="m 1.4746094,10.818359 h 0.017578 c -0.049432,-0.0068 -0.027486,-0.0072 -0.017578,0.0078 0.00164,0.0025 -6.399e-4,-0.0089 0,-0.0078 z"
       id="path10" /><path
       style="color:#000000;fill:#800000;-inkscape-stroke:none;paint-order:markers fill stroke"
       d="m 9.5878906,6.1347656 c 1.612e-4,2.058e-4 -0.00464,0.00398 -0.00391,0.00391 h -0.027344 c 0.011809,9.54e-5 0.019475,-0.00398 0.03125,-0.00391 z"
       id="path9" /><path
       style="color:#000000;fill:#800000;-inkscape-stroke:none;paint-order:markers fill stroke"
       d="m 3.1171875,6.1347656 c 0.010315,-6.28e-5 0.017002,0.00399 0.027344,0.00391 h -0.023437 c 5.543e-4,4.34e-5 -0.00395,-0.00369 -0.00391,-0.00391 z"
       id="path8" /><path
       style="color:#000000;fill:#800000;-inkscape-stroke:none;paint-order:markers fill stroke"
       d="m 8.4179688,2.1621063 c 0.00266,0.00607 0.00577,0.015799 0.00391,0.00195 l 0.00195,0.013672 c -5.693e-4,-0.00703 -0.00527,-0.00862 -0.00586,-0.015625 z"
       id="path7" /><path
       style="color:#000000;fill:#800000;-inkscape-stroke:none;paint-order:markers fill stroke"
       d="m 4.2832031,2.1601563 c -6.584e-4,0.00777 -0.00523,0.00977 -0.00586,0.017578 l 0.00195,-0.011719 c -0.00228,0.018059 -0.00716,0.012268 0.00391,-0.00586 z"
       id="path6" /><path
       id="path15"
       style="color:#000000;fill:#ffffff;-inkscape-stroke:none;paint-order:markers fill stroke;fill-opacity:0.5"
       d="M 11.606527 4.7015218 C 11.58982 4.7909177 11.556332 4.860507 11.505758 4.9221802 C 11.429897 5.0146949 11.305606 5.0978165 11.124902 5.1624756 C 10.763495 5.2917938 10.196866 5.3334999 9.5606567 5.3283569 L 9.5467041 5.3283569 L 9.5332682 5.330424 C 9.3775475 5.345318 9.2160898 5.4587798 9.1601644 5.5919067 C 9.104883 5.7235004 9.1184011 5.839112 9.1400106 5.9381388 C 9.1457418 5.9166524 9.1507455 5.8954476 9.1601644 5.8730265 C 9.2160898 5.7398996 9.3775475 5.6264378 9.5332682 5.6115438 L 9.5467041 5.6094767 L 9.5606567 5.6094767 C 10.196866 5.6146197 10.763495 5.5729135 11.124902 5.4435954 C 11.305606 5.3789362 11.429897 5.2958147 11.505758 5.2033 C 11.58162 5.1107903 11.622529 5.0058499 11.618929 4.8322632 L 11.618929 4.8301961 C 11.618214 4.7867246 11.61334 4.7439183 11.606527 4.7015218 z M 1.0939901 4.7020386 C 1.0872914 4.7442467 1.082772 4.7869263 1.0821045 4.8301961 L 1.0821045 4.8322632 C 1.0780693 5.0057809 1.1175263 5.1109452 1.1932088 5.2033 C 1.2688912 5.2956548 1.3932272 5.3789515 1.5740641 5.4435954 C 1.9357381 5.572883 2.5041057 5.6144658 3.1403768 5.6094767 L 3.1501953 5.6094767 L 3.1620809 5.6115438 C 3.3198823 5.6238913 3.4836064 5.7396704 3.5393188 5.8730265 C 3.5491517 5.8965629 3.5545775 5.9187797 3.5605062 5.9412394 C 3.5826191 5.8410041 3.5949425 5.7250502 3.5393188 5.5919067 C 3.4836064 5.4585506 3.3198823 5.3427715 3.1620809 5.330424 L 3.1501953 5.3283569 L 3.1403768 5.3283569 C 2.5041057 5.3333429 1.9357381 5.2917633 1.5740641 5.1624756 C 1.3932272 5.0978318 1.2688912 5.014535 1.1932088 4.9221802 C 1.1428107 4.8606797 1.1101808 4.7913182 1.0939901 4.7020386 z M 6.3593018 8.3612467 C 6.2370567 8.3595364 6.0545178 8.4266362 5.9551921 8.5627848 L 5.9510579 8.5684692 L 5.9474406 8.5741536 C 5.5304574 9.2114679 5.1218552 9.8391047 4.6875692 10.515637 C 4.6614812 10.554087 4.6953287 10.53134 4.6622477 10.52959 L 4.6560465 10.52959 L 1.5280721 10.535274 C 1.5098119 10.620071 1.4910946 10.704875 1.4763957 10.79314 L 1.4763957 10.795207 C 1.4771157 10.807287 1.4760754 10.818294 1.4748454 10.816394 L 4.6560465 10.81071 L 4.6622477 10.81071 C 4.6953287 10.81246 4.6614812 10.835207 4.6875692 10.796757 C 5.1218552 10.120217 5.5304574 9.4925877 5.9474406 8.8552734 L 5.9510579 8.849589 L 5.9551921 8.8439046 C 6.0545178 8.707756 6.2370567 8.6406562 6.3593018 8.6423665 C 6.4823535 8.6440871 6.6566473 8.7260615 6.7479085 8.847522 L 8.0119141 10.796757 C 8.0142951 10.800357 8.0119944 10.796224 8.0134644 10.798824 C 8.0280113 10.824184 8.0065085 10.81221 8.0372355 10.81071 L 8.044987 10.81071 L 11.224638 10.816394 C 11.223348 10.818274 11.221756 10.806087 11.222571 10.795207 C 11.222459 10.794507 11.222684 10.793817 11.222571 10.79314 C 11.207873 10.704877 11.189146 10.62007 11.170894 10.535274 L 8.044987 10.52959 L 8.0372355 10.52959 C 8.0065085 10.53109 8.0280113 10.543064 8.0134644 10.517704 C 8.0119944 10.515104 8.0142951 10.519237 8.0119141 10.515637 L 6.7479085 8.5664022 C 6.6566473 8.4449417 6.4823535 8.3629673 6.3593018 8.3612467 z " /></g></svg>
