<svg width="48" height="48" version="1.1" viewBox="0 0 12.7 12.7" xmlns="http://www.w3.org/2000/svg" xmlns:xlink="http://www.w3.org/1999/xlink">
  <defs>
    <linearGradient id="linearGradient21" x1="16.906" x2="16.906" y1="11.07" y2=".041785" gradientTransform="translate(-10.583)" gradientUnits="userSpaceOnUse">
      <stop stop-color="#fff" stop-opacity=".3" offset="0"/>
      <stop stop-color="#fff" stop-opacity="0" offset="1"/>
    </linearGradient>
  </defs>
  <path class="corpo" fill="#808080" d="m6.35 0c-1.0303 0.018323-1.682 0.62979-1.8092 2.1983-0.0078526 0.062297-0.027752 0.14503-0.14004 0.17932-1.5384 0.47458-3.5641 1.1759-3.5838 2.4484-5.531e-4 0.023784 0.0026905 0.044938 0.0036174 0.067696l-0.0036174 1.5431c-0.018209 0.78299 0.77441 1.0045 1.833 1.0423-0.5494 0.92129-1.2031 1.8831-1.434 3.2727-0.0022904 0.022216-0.0033532 0.043622-0.0031006 0.064078 2.2e-6 1.8e-4 -2.5e-6 3.38e-4 0 5.17e-4 -0.0012532 0.007948-0.0031289 0.016299-0.0031006 0.023254l0.0062012 1.5234c-0.018323 0.17773 0.040845 0.30147 0.23978 0.32866l3.1931-0.005168c0.09868 0.0052 0.18772-0.026833 0.25787-0.13022 0.43522-0.67804 0.84444-1.3067 1.2625-1.9456 0.053659-0.07355 0.11745-0.093471 0.18707-0.092501 0.065883 9.21e-4 0.12256 0.023151 0.17467 0.092501l1.2625 1.9456c0.070149 0.10339 0.15919 0.1352 0.25787 0.13022l3.1931 0.005168c0.19893-0.02722 0.25758-0.15168 0.23978-0.32918l5.16e-4 -1.5203c0.002183-0.028438 0.002712-0.058234-5.16e-4 -0.090433-0.23087-1.3895-0.88463-2.3514-1.434-3.2727 1.0582-0.037723 1.8494-0.25944 1.833-1.0423l-0.002067-1.573c1.82e-4 -0.012931 0.002344-0.024474 0.002067-0.037724-0.02094-1.2726-2.0455-1.9738-3.5838-2.4484-0.11229-0.034289-0.13167-0.11702-0.14004-0.17932-0.12695-1.5685-0.77883-2.1814-1.8092-2.1983z"/>
  <path class="gradiente" fill="url(#linearGradient21)" d="m6.35 0c-1.0303 0.01832-1.682 0.62979-1.8092 2.1983-0.0078 0.062297-0.02775 0.14503-0.14004 0.17932-1.5384 0.47458-3.5641 1.1759-3.5838 2.4484-0.02094 0.90043 1.0297 1.0587 2.3249 1.0485 0.16726 0.013088 0.18952 0.15649 0.15968 0.29146-0.48636 1.4227-1.7462 2.5429-2.0857 4.5858-0.01832 0.17773 0.04085 0.30198 0.23978 0.32918l3.1931-0.0052c0.09868 0.0052 0.18772-0.02735 0.25787-0.13074 0.43522-0.67804 0.84444-1.3062 1.2625-1.9451 0.05366-0.073552 0.11745-0.093475 0.18707-0.092501 0.06588 9.212e-4 0.12256 0.02315 0.17467 0.092501l1.2625 1.9451c0.07015 0.10339 0.15919 0.1352 0.25787 0.13022l3.1931 0.0057c0.19893-0.02722 0.25758-0.15168 0.23978-0.32918-0.33942-2.0428-1.5993-3.1631-2.0857-4.5858-0.029839-0.13506-0.007837-0.27544 0.15968-0.29146 1.2952 0.01047 2.3438-0.14822 2.3249-1.0485-0.02094-1.2726-2.0455-1.9738-3.5838-2.4484-0.11229-0.034289-0.13167-0.11702-0.14004-0.17932-0.12695-1.5685-0.77883-2.1814-1.8092-2.1983z"/>
  <path class="extrusao" fill="#000" fill-opacity=".3" d="m7.3417 0.28939c0.045369 0.032161 0.089311 0.067462 0.13126 0.10542-0.04203-0.038046-0.085792-0.073197-0.13126-0.10542zm-2.4443 0.52917c-0.093662 0.16902-0.17076 0.3668-0.23048 0.59583 0.059742-0.22901 0.13679-0.42682 0.23048-0.59583zm-0.49661 1.5591c-0.48076 0.14831-1.0091 0.31883-1.509 0.52193 0.49986-0.20305 1.0282-0.37362 1.509-0.52193zm-1.509 0.52193c-0.19994 0.08124-0.39542 0.16757-0.58136 0.25993 0.18595-0.092339 0.38142-0.17871 0.58136-0.25993zm5.4074-0.52193c0.48072 0.14831 1.0087 0.31888 1.5084 0.52193-0.4997-0.2031-1.0277-0.37362-1.5084-0.52193zm1.5084 0.52193c0.19989 0.081219 0.39545 0.16759 0.58136 0.25993-0.1859-0.092362-0.38148-0.17869-0.58136-0.25993zm2.0733 1.9642c-0.012189 0.86566-1.0467 1.0211-2.3229 1.0108-0.16752 0.016019-0.18952 0.15639-0.15968 0.29146 0.15554 0.45497 0.39333 0.87993 0.65164 1.3131 1.0582-0.037722 1.8494-0.25944 1.833-1.0423l-0.002067-1.573zm-11.06 0.032039-0.0036174 1.541c-0.018209 0.78298 0.77441 1.0045 1.833 1.0423 0.25831-0.43317 0.4961-0.85811 0.65164-1.3131 0.029842-0.13496 0.0075784-0.27837-0.15968-0.29146-1.26 0.0098795-2.2855-0.14172-2.3213-0.97875zm1.8278 2.5859c-0.23402 0.39232-0.48526 0.79441-0.71624 1.2314 0.23183-0.43793 0.48188-0.83857 0.71624-1.2314zm7.4032 0c0.23435 0.39288 0.48441 0.79352 0.71624 1.2314-0.23098-0.43704-0.48222-0.83913-0.71624-1.2314zm-8.1716 1.3312c-0.036294 0.070669-0.072113 0.14217-0.10697 0.21497 0.034868-0.072696 0.07067-0.14441 0.10697-0.21497zm8.9411 0.0015503c0.035187 0.068438 0.06951 0.13782 0.10335 0.20826-0.033799-0.070466-0.06821-0.13979-0.10335-0.20826zm-4.4648 0.093018c-0.069615-9.74e-4 -0.13341 0.018949-0.18707 0.092501-0.41802 0.63889-0.82724 1.2671-1.2625 1.9451-0.070149 0.10339-0.15919 0.13594-0.25787 0.13074l-3.1931 0.005167c-0.17385-0.023766-0.24095-0.12168-0.24288-0.26458-0.0012532 0.007948-0.0031289 0.016299-0.0031006 0.023254l0.0062012 1.5234c-0.018323 0.17773 0.040846 0.30147 0.23978 0.32866l3.1931-0.005168c0.09868 0.0052 0.18772-0.026834 0.25787-0.13022 0.43522-0.67804 0.84444-1.3067 1.2625-1.9456 0.053659-0.07355 0.11745-0.093471 0.18707-0.092501 0.065883 9.21e-4 0.12256 0.023151 0.17467 0.092501l1.2625 1.9456c0.070149 0.10339 0.15919 0.1352 0.25787 0.13022l3.1931 0.005168c0.19893-0.02722 0.25758-0.15168 0.23978-0.32918l5.16e-4 -1.5203c-0.00985 0.12832-0.077452 0.21646-0.2403 0.23874l-3.1931-0.005684c-0.09868 0.004973-0.18772-0.026833-0.25787-0.13022l-1.2625-1.9451c-0.052108-0.069351-0.10878-0.09158-0.17467-0.092501zm-4.6638 0.29611c-0.068134 0.15192-0.13321 0.30717-0.19224 0.47026 0.059073-0.16289 0.12405-0.3185 0.19224-0.47026zm9.3193 0.010335c0.066463 0.14853 0.13038 0.30074 0.1881 0.45992-0.057707-0.15944-0.12166-0.31117-0.1881-0.45992zm-9.5245 0.49506c-0.03675 0.10342-0.071726 0.20871-0.10387 0.31729 0.032204-0.10861 0.067035-0.21384 0.10387-0.31729zm-0.10387 0.31729c-0.031124 0.10514-0.059106 0.21355-0.085266 0.32401 0.026169-0.11036 0.054114-0.21895 0.085266-0.32401zm9.8294-0.31729c0.036834 0.10345 0.071667 0.20868 0.10387 0.31729-0.032143-0.10859-0.06712-0.21387-0.10387-0.31729zm0.10387 0.31729c0.029707 0.10019 0.05646 0.20402 0.081649 0.30902-0.025205-0.10523-0.051932-0.20863-0.081649-0.30902zm-10.031 0.3793c-0.025588 0.11278-0.04951 0.22745-0.069246 0.34623 0.019715-0.11866 0.043655-0.23356 0.069246-0.34623zm10.133 0.013953c0.024346 0.10836 0.047224 0.2184 0.066146 0.33228-0.018919-0.11387-0.041838-0.22394-0.066146-0.33228z"/>
  <path class="contorno" fill="#000" fill-opacity=".15" d="m6.35 0c-1.0303 0.01832-1.682 0.62979-1.8092 2.1983-0.00785 0.062297-0.027752 0.14503-0.14004 0.17932-1.5384 0.47458-3.5641 1.1759-3.5838 2.4484-0.02094 0.90043 1.0297 1.0587 2.3249 1.0485 0.16726 0.013088 0.18952 0.15649 0.15968 0.29146-0.48636 1.4227-1.7462 2.5429-2.0857 4.5858-0.018323 0.17773 0.040845 0.30198 0.23978 0.32918l3.1931-0.005167c0.09868 0.0052 0.18772-0.02735 0.25787-0.13074 0.43522-0.67804 0.84444-1.3062 1.2625-1.9451 0.053659-0.073552 0.11745-0.093475 0.18707-0.092501 0.065883 9.212e-4 0.12256 0.02315 0.17467 0.092501l1.2625 1.9451c0.070149 0.10339 0.15919 0.1352 0.25787 0.13022l3.1931 0.005684c0.19893-0.02722 0.25758-0.15168 0.23978-0.32918-0.33942-2.0429-1.5993-3.1631-2.0857-4.5858-0.029839-0.13506-0.0078377-0.27544 0.15968-0.29146 1.2952 0.01047 2.3438-0.14822 2.3249-1.0485-0.02094-1.2726-2.0455-1.9738-3.5838-2.4484-0.11229-0.034289-0.13167-0.11702-0.14004-0.17932-0.12695-1.5685-0.77883-2.1814-1.8092-2.1983zm0.0015503 0.26562c0.45968 0.008889 0.78949 0.13639 1.0428 0.42581 0.25472 0.29101 0.43947 0.77838 0.50023 1.5291l0.002067 0.0062012v0.0077514c0.00572 0.042516 0.017398 0.1175 0.068213 0.20102 0.050815 0.083523 0.14895 0.16208 0.25787 0.19534 0.76493 0.23602 1.6422 0.52824 2.3084 0.90227 0.66667 0.3743 1.0796 0.80026 1.0878 1.2971v0.0020671c0.0036 0.17359-0.037309 0.27853-0.11317 0.37104-0.075861 0.092515-0.20015 0.17564-0.38086 0.2403-0.36141 0.12932-0.92804 0.17102-1.5642 0.16588h-0.013953l-0.013436 0.0020671c-0.15572 0.014894-0.31718 0.12836-0.3731 0.26148-0.055926 0.13313-0.041684 0.25006-0.019637 0.34985l0.0020671 0.015503 0.0056844 0.013436c0.51766 1.5142 1.7491 2.5887 2.0743 4.5413 1.13e-4 6.77e-4 -1.12e-4 0.001367 0 0.002067-8.15e-4 0.01088 7.77e-4 0.023067 0.002067 0.021187l-3.1797-0.005684h-0.0077515c-0.030727 0.0015-0.0092242 0.013474-0.023771-0.011886-0.00147-0.0026 8.307e-4 0.001533-0.0015503-0.002067l-1.264-1.9492c-0.091261-0.12146-0.26556-0.20343-0.38861-0.20516-0.12225-0.0017103-0.30478 0.06539-0.40411 0.20154l-0.0041342 0.0056844-0.0036173 0.0056844c-0.41698 0.63731-0.82559 1.2649-1.2599 1.9415-0.026088 0.03845 0.0077595 0.015703-0.025322 0.013953h-0.0062012l-3.1812 0.005684c0.00123 0.0019 0.0022703-0.009107 0.0015503-0.021187v-0.002067c0.32518-1.9526 1.5587-3.0271 2.0764-4.5413l0.0041341-0.013436 0.0036174-0.015503c0.022181-0.10035 0.034525-0.21649-0.021187-0.34985-0.055712-0.13336-0.21944-0.24914-0.37724-0.26148l-0.011886-0.0020671h-0.0098185c-0.63627 0.0049891-1.2046-0.036594-1.5663-0.16588-0.18084-0.064644-0.30517-0.14794-0.38086-0.2403-0.075682-0.092355-0.11514-0.19752-0.1111-0.37104v-0.0020671c0.0076622-0.49668 0.41891-0.92278 1.0857-1.2971 0.66681-0.3743 1.545-0.66615 2.3105-0.90227 0.1088-0.033225 0.20682-0.10964 0.25787-0.19327 0.051048-0.083631 0.061087-0.16092 0.066663-0.20516l0.0020671-0.0056844v-0.0062012c0.060865-0.75074 0.24709-1.2382 0.50178-1.5291 0.25371-0.28974 0.58389-0.41667 1.0449-0.42581z"/>
  <path class="brilho" fill="#fff" fill-opacity=".5" d="m11.607 4.7015c-0.016707 0.089396-0.050195 0.15899-0.10077 0.22066-0.075861 0.092515-0.20015 0.17564-0.38086 0.2403-0.36141 0.12932-0.92804 0.17102-1.5642 0.16588h-0.013953l-0.013436 0.0020671c-0.15572 0.014894-0.31718 0.12836-0.3731 0.26148-0.055281 0.13159-0.041763 0.24721-0.020154 0.34623 0.0057312-0.021486 0.010735-0.042691 0.020154-0.065112 0.055925-0.13313 0.21738-0.24659 0.3731-0.26148l0.013436-0.0020671h0.013953c0.63621 0.005143 1.2028-0.036563 1.5642-0.16588 0.1807-0.064659 0.305-0.14778 0.38086-0.2403 0.075862-0.09251 0.11677-0.19745 0.11317-0.37104v-0.0020671c-7.15e-4 -0.043472-0.005589-0.086278-0.012402-0.12867zm-10.513 5.168e-4c-0.0066987 0.042208-0.011218 0.084888-0.011886 0.12816v0.0020671c-0.0040352 0.17352 0.035422 0.27868 0.1111 0.37104 0.075682 0.092355 0.20002 0.17565 0.38086 0.2403 0.36167 0.12929 0.93004 0.17087 1.5663 0.16588h0.0098185l0.011886 0.0020671c0.1578 0.012348 0.32153 0.12813 0.37724 0.26148 0.0098329 0.023536 0.015259 0.045753 0.021187 0.068213 0.022113-0.10024 0.034436-0.21619-0.021187-0.34933-0.055712-0.13336-0.21944-0.24914-0.37724-0.26148l-0.011886-0.0020671h-0.0098185c-0.63627 0.004986-1.2046-0.036594-1.5663-0.16588-0.18084-0.064644-0.30517-0.14794-0.38086-0.2403-0.050398-0.0615-0.083028-0.13086-0.099219-0.22014zm5.2653 3.6592c-0.12225-0.0017103-0.30478 0.06539-0.40411 0.20154l-0.0041342 0.0056844-0.0036173 0.0056844c-0.41698 0.63731-0.82559 1.265-1.2599 1.9415-0.026088 0.03845 0.0077595 0.015703-0.025322 0.013953h-0.0062012l-3.128 0.005684c-0.01826 0.084797-0.036978 0.1696-0.051676 0.25787v0.002067c7.2e-4 0.01208-3.203e-4 0.023087-0.0015503 0.021187l3.1812-0.005684h0.0062012c0.033081 0.00175-7.665e-4 0.024497 0.025322-0.013953 0.43429-0.67654 0.84289-1.3042 1.2599-1.9415l0.0036173-0.0056844 0.0041342-0.0056844c0.099326-0.13615 0.28186-0.20325 0.40411-0.20154 0.12305 0.0017206 0.29735 0.083695 0.38861 0.20516l1.264 1.9492c0.002381 0.0036 8.03e-5 -5.33e-4 0.0015503 0.002067 0.014547 0.02536-0.0069559 0.013386 0.023771 0.011886h0.0077515l3.1797 0.005684c-0.00129 0.00188-0.002882-0.010307-0.002067-0.021187-1.12e-4 -7e-4 1.13e-4 -0.00139 0-0.002067-0.014698-0.088263-0.033425-0.17307-0.051677-0.25787l-3.1259-0.005684h-0.0077515c-0.030727 0.0015-0.0092242 0.013474-0.023771-0.011886-0.00147-0.0026 8.307e-4 0.001533-0.0015503-0.002067l-1.264-1.9492c-0.091261-0.12146-0.26556-0.20343-0.38861-0.20516z"/>
</svg>
