<?xml version="1.0" encoding="UTF-8"?>
<svg width="244" height="40" version="1.1" viewBox="0 0 64.558 10.583" xmlns="http://www.w3.org/2000/svg">
  <g transform="translate(-68.43 -53.932)">
    <g transform="matrix(.43074 0 0 .43074 55.887 -55.585)">
      <path transform="scale(.26458)" d="m230.41 960.96c-39.562 0-44.143 35.746-44.143 53.174 0 30.276 13.102 39.689 26.205 39.689 11.322 0 17.174-5.0881 18.955-10.812 0.25444 5.3428 3.8163 9.5391 12.594 9.5391h6.9961c1.5265 0 1.9077-0.3817 2.1621-1.9082 0.76326-3.6891 2.0352-21.625 2.0352-28.24 0-9.7951-1.653-13.357-10.049-13.357h-6.9961c-3.1802 0-3.5615 3.4353-4.0703 8.3965l-0.76367 7.1231c-0.76326 7.1237-5.5982 9.414-12.086 9.414-6.9965 0-11.193-5.4691-11.193-21.752 0-9.7952 1.7809-31.803 18.445-31.803 8.0142 0 6.7409 6.8686 7.377 12.975 0.12722 1.781 0.38319 2.291 4.0723 2.291 11.576 0 18.445-5.0896 18.445-14.885 0-12.212-10.813-19.844-27.986-19.844zm-90.574 0.2539c-5.2156 0-12.084 0.38156-22.006 1.0176-2.2898 0.12737-2.291 1.1452-2.291 6.6152 0 2.6714-0.25322 5.5974-2.543 35.746-1.9082 24.424-2.418 31.038-2.418 34.219 0 10.05 5.0887 15.012 25.061 15.012 31.166 0 40.453-12.976 40.453-28.496 0-9.6679-3.6892-17.045-13.484-20.098 10.431-2.6714 13.484-12.849 13.484-20.863 0-14.629-10.305-23.152-36.256-23.152zm4.3262 17.555c8.523 0 11.576 4.4524 11.576 9.668 0 4.0707-1.9094 9.4141-11.959 9.4141-2.2898 0-4.7058-0.38152-7.25-1.0176 0.50884-6.8693 0.76316-12.975 1.0176-17.428 2.417-0.38166 4.8343-0.63672 6.6152-0.63672zm-1.2715 35.619c8.523 0 11.574 4.8348 11.574 11.195 0 4.8339-1.7795 11.703-12.338 11.703-2.417 0-5.3437-0.5099-8.2695-1.4004l1.4004-20.734c2.9258-0.5088 5.7247-0.7636 7.6328-0.7636z" fill="#333" stroke-width="2.3216"/>
      <path d="m176.94 278.49c0.40389 0 0.50486-0.13463 0.53852-0.50486 0.10097-1.0434 1.38-18.983 1.38-19.925 0-2.2887-0.70681-3.4667-3.4667-3.4667h-1.8512c-0.37023 0-0.53852 0.13463-0.53852 0.50487 0 1.0434-0.30291 4.813-0.60583 8.7846h-6.0247c0.20194-3.0292 0.37023-5.4862 0.37023-5.8227 0-2.2887-0.70681-3.4667-3.4667-3.4667h-1.8512c-0.37023 0-0.53852 0.13463-0.53852 0.50487 0 2.2887-1.4136 17.805-1.4136 20.531 0 1.8175 1.0097 2.8609 3.5004 2.8609h1.8512c0.40389 0 0.50486-0.13463 0.53852-0.50486l0.67315-9.2222h5.991c-0.23561 3.1302-0.43755 5.8901-0.43755 6.8661 0 1.8175 1.0097 2.8609 3.5004 2.8609zm-28.138-4.914c-2.8609 0-4.2072-1.5819-4.2072-5.7218 0-2.558 0.50486-8.448 4.7457-8.448 2.0194 0 2.0194 1.3463 2.0868 4.4428 0 0.4712 0.13463 0.60583 1.1107 0.60583 3.0628 0 4.8467-1.279 4.8467-4.1399 0-3.3321-2.4233-6.0584-7.7412-6.0584-9.8953 0-11.343 9.4578-11.343 13.934 0 8.2798 4.914 10.636 9.5251 10.636s7.0008-2.356 7.371-3.8706c0.30292-1.2453 0.50486-2.2887 0.50486-2.9955 0-0.63949-0.16828-1.0097-0.67315-1.0097-1.4136 0-2.5243 2.6253-6.2266 2.6253zm-13.227-14.271c2.0194 0 2.457-0.90875 2.558-2.255l0.13463-1.9858c0-0.33658-0.26926-0.47121-0.53852-0.47121h-15.045c-1.6492 0-2.1877 1.2117-2.255 2.356l-0.10097 1.8848c0 0.30292 0.0673 0.4712 0.37023 0.4712h5.3852c-0.40389 5.5198-1.1444 14.338-1.1444 16.324 0 1.8175 1.0097 2.8609 3.5004 2.8609h1.8512c0.2356 0 0.33657-0.13463 0.37023-0.50486l1.279-18.68zm-26.455-4.712c-0.80778 0-0.94241 0-1.3126 0.6395-1.4136 2.5243-7.6066 18.007-7.6066 21.036 0 1.6156 1.7502 2.2214 3.1975 2.2214h1.7838c0.37023 0 0.67315-0.20195 0.77412-0.53852l1.1107-4.6447h5.8564c0.37023 3.2311 0.74046 5.1833 4.6111 5.1833h1.7165c0.60583 0 0.90875-0.16829 0.90875-0.80778 0-1.1107-0.90875-4.8467-4.5101-19.353-0.4712-1.9185-1.077-3.736-3.3321-3.736zm1.6156 4.9477 1.4136 8.8856h-3.8706zm-18.242 1.0097c-0.20194 4.4764-1.3463 13.665-1.3463 15.213 0 1.6156 0.97607 2.7263 3.5004 2.7263h1.8512c0.40389 0 0.50486-0.13463 0.53852-0.50486 0.10097-0.94241 1.3126-17.098 1.3126-20.194 0-2.0531-0.53852-3.1975-3.3994-3.1975h-5.2506c-0.57218 0-0.74046 0.30292-0.84144 0.57218-2.8609 11.073-1.4809 5.6208-4.4428 16.795-2.3224-12.521-1.3126-17.367-6.5969-17.367h-4.7121c-0.2356 0-0.57218 0.13463-0.57218 0.50487-0.03366 2.4906-0.03366 1.9858-0.70681 10.703-0.33658 4.3082-0.67315 8.5827-0.67315 9.6934 0 1.9521 0.97607 2.9955 3.5004 2.9955h1.8512c0.40389 0 0.53852-0.20195 0.53852-1.5482 0-3.6014 0.37023-14.54 0.37023-16.391 1.178 4.5774 2.2214 11.679 3.5677 16.223 0.50486 1.38 2.2551 1.7165 3.8033 1.7165 1.2117 0 1.7165-0.20195 1.8848-0.57218 1.7838-4.4428 4.712-14.136 5.8227-17.367z" fill="#00baa7" stroke-width=".61425"/>
    </g>
  </g>
</svg>
