<?xml version="1.0" encoding="UTF-8"?>
<svg width="16" height="16" version="1.1" viewBox="0 0 4.2333 4.2333" xmlns="http://www.w3.org/2000/svg">
  <g transform="translate(-105.19 -86.27)">
    <path d="m107.38 89.708c0.1597 0.24408 0.31592 0.48419 0.48221 0.74323 0.0268 0.0395 0.0608 0.0517 0.0985 0.0498l1.2199 2e-3c0.076-0.0104 0.0984-0.0579 0.0916-0.12571-0.12967-0.78047-0.61086-1.2084-0.79667-1.7519-0.0114-0.0516-3e-3 -0.10534 0.061-0.11146 0.49481 4e-3 0.8954-0.0566 0.88819-0.40055-8e-3 -0.48617-0.78151-0.75394-1.3692-0.93525-0.0429-0.0131-0.0503-0.0447-0.0535-0.0685-0.0485-0.59924-0.29754-0.83346-0.69118-0.83993-0.39362 7e-3 -0.64258 0.24069-0.69116 0.83993-3e-3 0.0238-0.0106 0.0554-0.0535 0.0685-0.58774 0.18131-1.3617 0.44908-1.3692 0.93525-8e-3 0.344 0.39337 0.40443 0.88819 0.40055 0.0639 5e-3 0.0724 0.0599 0.061 0.11146-0.18581 0.54352-0.667 0.97143-0.79668 1.7519-7e-3 0.0679 0.0156 0.11532 0.0916 0.12571l1.2199-2e-3c0.0377 2e-3 0.0717-0.0103 0.0985-0.0498 0.16627-0.25904 0.3225-0.49915 0.4822-0.74323 0.0205-0.0281 0.0531-0.0292 0.0692-0.0291 0.0123 2e-4 0.0488 8.8e-4 0.0692 0.0291z" fill="#808080" style="paint-order:markers stroke fill"/>
  </g>
</svg>
