<?xml version="1.0" encoding="UTF-8"?>
<svg width="16" height="16" version="1.1" viewBox="0 0 4.2333 4.2333" xmlns="http://www.w3.org/2000/svg">
  <g transform="translate(-105.19 -86.27)">
    <path id="Shape" d="m108.52 87.681h-0.20159v-0.40318c0-0.56444-0.44349-1.0079-1.0079-1.0079-0.56445 0-1.0079 0.44349-1.0079 1.0079v0.40318h-0.20158c-0.22176 0-0.40318 0.18143-0.40318 0.40317v2.0159c0 0.22175 0.18142 0.40318 0.40318 0.40318h2.419c0.22175 0 0.40317-0.18143 0.40317-0.40318v-2.0159c0-0.22174-0.18142-0.40317-0.40317-0.40317zm-1.2095 1.8143c-0.22175 0-0.40318-0.18143-0.40318-0.40317 0-0.22175 0.18143-0.40318 0.40318-0.40318s0.40317 0.18143 0.40317 0.40318c0 0.22174-0.18142 0.40317-0.40317 0.40317zm0.62491-1.8143h-1.2498v-0.40318c0-0.3427 0.28222-0.62492 0.62492-0.62492s0.62491 0.28222 0.62491 0.62492z" fill="#808080" fill-rule="evenodd"/>
  </g>
</svg>
